<?xml version="1.0" encoding="UTF-8"?>
<svg version="1.1" xmlns="http://www.w3.org/2000/svg" width="503" height="496">
<path d="M0 0 C4.45936282 -0.3913152 6.97791276 0.78240738 10.8125 3 C11.78832031 3.556875 12.76414062 4.11375 13.76953125 4.6875 C14.87361328 5.3371875 14.87361328 5.3371875 16 6 C16 6.66 16 7.32 16 8 C16.78375 8.20625 17.5675 8.4125 18.375 8.625 C22.35941767 10.13633084 25.67594651 12.12423418 29.2890625 14.359375 C32.00365647 16.00221285 34.76182622 17.50944533 37.5625 19 C40.95375337 20.82350914 44.15630998 22.73401178 47.3125 24.9375 C51.52634786 27.82935637 55.96868679 30.02576881 60.5612793 32.25366211 C65.87455602 34.8636553 70.86279031 37.89226482 75.875 41.04296875 C78.7645039 42.85252057 81.67847057 44.59778357 84.625 46.3125 C85.53367167 46.86735769 86.44234335 47.42221539 87.37855053 47.99388695 C90.07256436 49.56936879 92.80473339 50.76047362 95.69851398 51.92489052 C108.32513227 57.41528288 108.32513227 57.41528288 111.09841514 63.35093641 C112.87482509 70.42561832 112.46705544 77.69991145 112.28393555 84.93505859 C112.29167995 87.37192601 112.30768018 89.80877902 112.33128357 92.24554443 C112.36671789 98.15852722 112.3145558 104.06683788 112.22116818 109.97882526 C112.11623626 116.86747529 112.11272265 123.75508793 112.11318431 130.64440127 C112.110628 142.93476674 112.01762739 155.22276555 111.87280273 167.51220703 C111.73242453 179.43179633 111.65466563 191.34959288 111.6472168 203.27001953 C111.64674828 204.00507746 111.64627976 204.74013539 111.64579704 205.4974678 C111.64534083 206.23127059 111.64488463 206.96507337 111.6444146 207.72111261 C111.64346839 209.19864935 111.64249104 210.67618607 111.64148235 212.15372276 C111.64098675 212.88243067 111.64049115 213.61113858 111.63998054 214.36192854 C111.62953189 225.73416767 111.56001212 237.10613569 111.48527693 248.47810566 C111.45905058 252.59638243 111.44200362 256.71458036 111.43171444 260.83292644 C111.41380077 267.97204532 111.35568322 275.10966866 111.25243568 282.2481308 C111.22424155 284.61960017 111.20959721 286.99127428 111.20935059 289.36291122 C111.20656351 292.59624032 111.15472241 295.82511485 111.08988953 299.05770874 C111.10023198 300.00059639 111.11057444 300.94348405 111.1212303 301.91494405 C110.92316948 308.12674445 110.92316948 308.12674445 108.24008906 310.66475606 C106.20641902 311.95103725 104.18540841 312.99872095 102 314 C100.68708984 314.804375 100.68708984 314.804375 99.34765625 315.625 C94.67241365 318.43813743 89.96054421 321.15053614 85.171875 323.765625 C82.27346696 325.41292166 79.49719296 327.22924339 76.7265625 329.08203125 C75 330 75 330 72 330 C71.67 316.14 71.34 302.28 71 288 C65.72 291.3 60.44 294.6 55 298 C53.35 298.99 51.7 299.98 50 301 C49.29278422 302.97731664 49.29278422 302.97731664 49.45166016 305.20849609 C49.4546109 306.05302338 49.45756165 306.89755066 49.46060181 307.76766968 C49.48649384 308.67707306 49.51238586 309.58647644 49.5390625 310.5234375 C49.54210288 312.45052019 49.54469303 314.37760364 49.546875 316.3046875 C49.58028567 319.34211027 49.62507171 322.37891785 49.68066406 325.41601562 C49.72543872 328.3482794 49.72791314 331.27838583 49.7265625 334.2109375 C49.77147324 335.56896988 49.77147324 335.56896988 49.81729126 336.95443726 C49.79309521 343.09318645 49.79309521 343.09318645 47.49822998 345.71710205 C44.50705904 347.96468507 42.80314666 349 39 349 C39 349.66 39 350.32 39 351 C37.39583333 351.875 35.79166667 352.75 34.1875 353.625 C33.17945313 354.17542969 32.17140625 354.72585938 31.1328125 355.29296875 C29.17128642 356.36178034 27.20801532 357.4274025 25.2421875 358.48828125 C24.35789062 358.96652344 23.47359375 359.44476563 22.5625 359.9375 C21.66144531 360.4221875 20.76039063 360.906875 19.83203125 361.40625 C17.81863664 362.53930517 15.83936853 363.73395014 13.88671875 364.96875 C5.97609476 369.93382408 5.97609476 369.93382408 1.3125 370.25 C-3.06688617 368.59740145 -7.01729321 366.44742299 -11 364 C-11 363.34 -11 362.68 -11 362 C-11.5772583 361.87778076 -12.1545166 361.75556152 -12.74926758 361.62963867 C-15.07697764 360.97846563 -16.90193085 360.09799742 -19.01171875 358.92578125 C-19.77033203 358.50490234 -20.52894531 358.08402344 -21.31054688 357.65039062 C-22.09494141 357.20888672 -22.87933594 356.76738281 -23.6875 356.3125 C-24.45255859 355.89033203 -25.21761719 355.46816406 -26.00585938 355.03320312 C-28.36077705 353.71786158 -30.69320532 352.39900529 -33 351 C-33.74758072 350.62091492 -34.49516144 350.24182983 -35.26539612 349.85125732 C-41.52652006 346.34516087 -41.52652006 346.34516087 -42.78620911 342.76637268 C-43.04215752 340.06409797 -43.01409838 337.50002734 -42.87890625 334.7890625 C-42.86617172 333.82092621 -42.85343719 332.85278992 -42.84031677 331.85531616 C-42.79010108 328.77594907 -42.6772414 325.70257128 -42.5625 322.625 C-42.5173376 320.53263748 -42.47627608 318.44018215 -42.43945312 316.34765625 C-42.34044822 311.22947819 -42.18526157 306.11575274 -42 301 C-43.65 300.34 -45.3 299.68 -47 299 C-52.28 296.03 -57.56 293.06 -63 290 C-63.33 303.86 -63.66 317.72 -64 332 C-74.16656032 327.93337587 -83.42089846 322.02056205 -92.7421875 316.32421875 C-93.63164062 315.78410156 -94.52109375 315.24398438 -95.4375 314.6875 C-96.24058594 314.19636719 -97.04367188 313.70523437 -97.87109375 313.19921875 C-100.07286228 311.87010992 -100.07286228 311.87010992 -103 311 C-103 310.34 -103 309.68 -103 309 C-103.66 309 -104.32 309 -105 309 C-105 227.16 -105 145.32 -105 61 C-89 52 -89 52 -87 52 C-87 51.34 -87 50.68 -87 50 C-86.32195312 49.63648438 -85.64390625 49.27296875 -84.9453125 48.8984375 C-80.25193792 46.36323517 -75.60759092 43.79356808 -71.0625 41 C-67.53770591 38.85181841 -63.96975785 36.97593986 -60.25 35.1875 C-55.0156942 32.63058847 -50.20676101 29.60675616 -45.36352539 26.39404297 C-41.26808261 23.71636187 -37.0939876 21.4352028 -32.6875 19.3125 C-27.90131858 16.99677789 -23.51700241 14.5180456 -19.16015625 11.48046875 C-5.32717678 2 -5.32717678 2 0 2 C0 1.34 0 0.68 0 0 Z M-1 14 C-1 14.66 -1 15.32 -1 16 C-1.55300781 16.10828125 -2.10601562 16.2165625 -2.67578125 16.328125 C-5.44006094 17.12721089 -7.67679617 18.34429569 -10.1875 19.75 C-11.1465625 20.28367187 -12.105625 20.81734375 -13.09375 21.3671875 C-14.53234375 22.17542969 -14.53234375 22.17542969 -16 23 C-17.72888743 23.958837 -19.45802589 24.91722162 -21.1875 25.875 C-22.45858156 26.5828878 -23.72951673 27.29103897 -25 28 C-25 28.66 -25 29.32 -25 30 C-25.84111328 30.17015625 -25.84111328 30.17015625 -26.69921875 30.34375 C-34.84735881 32.66783749 -42.43224598 38.39053442 -49.60864258 42.83984375 C-53.62255498 45.29564259 -57.635079 47.23724344 -62 49 C-62 49.66 -62 50.32 -62 51 C-62.71027344 51.27070312 -63.42054688 51.54140625 -64.15234375 51.8203125 C-67.05917455 53.02451401 -69.79078008 54.38698347 -72.5625 55.875 C-73.49191406 56.36742187 -74.42132813 56.85984375 -75.37890625 57.3671875 C-77.994015 58.99627164 -79.92086587 60.7398589 -82 63 C-79.30329328 64.66887495 -79.30329328 64.66887495 -76.23046875 64.75 C-67.1744313 61.70488758 -58.72856851 55.69853116 -50.6796875 50.6015625 C-48 49 -48 49 -45 48 C-45 47.34 -45 46.68 -45 46 C-44.154375 45.75121094 -43.30875 45.50242188 -42.4375 45.24609375 C-38.69850152 43.8907068 -35.40227161 42.08677732 -32 40.0625 C-27.73573511 37.55328737 -23.45224856 35.1650416 -19 33 C-19 32.34 -19 31.68 -19 31 C-18.48824219 30.9175 -17.97648437 30.835 -17.44921875 30.75 C-13.95543911 29.68013447 -10.94745756 27.83541016 -7.8125 26 C-7.17119141 25.63132812 -6.52988281 25.26265625 -5.86914062 24.8828125 C-2.75268998 23.19156948 -2.75268998 23.19156948 0 21 C2.33297433 20.95907063 4.66705225 20.95758277 7 21 C7 21.66 7 22.32 7 23 C9.64738916 24.4606285 10.89448334 25 14 25 C14 25.66 14 26.32 14 27 C16.7881022 28.5066972 19.58103958 30.00419804 22.375 31.5 C23.1690625 31.92925781 23.963125 32.35851562 24.78125 32.80078125 C25.54179687 33.20683594 26.30234375 33.61289063 27.0859375 34.03125 C28.1385376 34.59682617 28.1385376 34.59682617 29.21240234 35.17382812 C30.97436711 36.13984328 30.97436711 36.13984328 33 36 C33 36.66 33 37.32 33 38 C33.60513428 38.29495361 34.21026855 38.58990723 34.83374023 38.89379883 C41.03846573 41.95228134 47.07146461 45.23154806 53.0625 48.6875 C53.96282959 49.20207764 54.86315918 49.71665527 55.79077148 50.24682617 C60.22791123 52.79076545 64.6362716 55.37098415 69 58.0390625 C70.15810181 58.74156128 70.15810181 58.74156128 71.33959961 59.45825195 C72.78979972 60.34175113 74.23370723 61.23568788 75.67016602 62.14135742 C79.12467837 64.40191465 79.12467837 64.40191465 83.08569336 64.72924805 C85.19910401 64.07360316 85.19910401 64.07360316 87 62 C85.6454699 59.29093981 84.11810757 58.83972542 81.4375 57.4375 C76.50395406 54.81272458 71.61655093 52.12117776 66.75 49.375 C66.0892749 49.0030249 65.4285498 48.6310498 64.74780273 48.24780273 C64.10399658 47.88501221 63.46019043 47.52222168 62.796875 47.1484375 C62.16845703 46.79491211 61.54003906 46.44138672 60.89257812 46.07714844 C59.59883258 45.34082164 58.31128378 44.59352774 57.02929688 43.83691406 C53.73896099 41.71780992 53.73896099 41.71780992 50 41 C50 40.34 50 39.68 50 39 C49.18660156 38.61070313 48.37320313 38.22140625 47.53515625 37.8203125 C39.63059723 33.96139392 32.02935181 29.77261312 24.51196289 25.20166016 C21.00671561 22.84307796 21.00671561 22.84307796 17 22 C17 21.34 17 20.68 17 20 C15.27559635 19.01246936 13.54524974 18.03531194 11.8125 17.0625 C10.84957031 16.51722656 9.88664062 15.97195312 8.89453125 15.41015625 C4.0198077 12.98053897 4.0198077 12.98053897 -1 14 Z M-81 115 C-81 123.58 -81 132.16 -81 141 C-74.90958805 145.24806947 -74.90958805 145.24806947 -71 145 C-71 145.66 -71 146.32 -71 147 C-69.56705502 147.84114171 -68.12845595 148.67265687 -66.6875 149.5 C-65.88699219 149.9640625 -65.08648437 150.428125 -64.26171875 150.90625 C-61.9685882 152.21767886 -61.9685882 152.21767886 -59 152 C-56.6066414 137.7886831 -56.6066414 137.7886831 -60.70214844 124.75244141 C-66.57369953 119.79856846 -73.60680061 116.84829985 -81 115 Z M83.4453125 117.1171875 C82.39923828 117.78041016 82.39923828 117.78041016 81.33203125 118.45703125 C80.60371094 118.92496094 79.87539063 119.39289063 79.125 119.875 C77.69115562 120.79071099 76.2562904 121.70482585 74.8203125 122.6171875 C73.86535889 123.22989502 73.86535889 123.22989502 72.89111328 123.85498047 C70.98693329 125.00791155 68.9910101 126.00449495 67 127 C67 135.58 67 144.16 67 153 C71.29 151.02 75.58 149.04 80 147 C80 146.34 80 145.68 80 145 C81.3921875 144.566875 81.3921875 144.566875 82.8125 144.125 C86.09791667 143.1125 86.09791667 143.1125 89 141 C89.41737872 138.28516406 89.41737872 138.28516406 89.29296875 135.1171875 C89.28330078 133.95058594 89.27363281 132.78398437 89.26367188 131.58203125 C89.23853516 130.35871094 89.21339844 129.13539063 89.1875 127.875 C89.17396484 126.64394531 89.16042969 125.41289062 89.14648438 124.14453125 C89.11103543 121.09592157 89.06162079 118.048175 89 115 C86.48593884 115 85.55318119 115.76744481 83.4453125 117.1171875 Z M-41 138 C-41 146.58 -41 155.16 -41 164 C-37.7825 165.85625 -37.7825 165.85625 -34.5 167.75 C-33.51290039 168.32186035 -33.51290039 168.32186035 -32.50585938 168.90527344 C-28.08280503 171.44424177 -23.57770559 173.75165787 -19 176 C-16.63750742 161.34340844 -16.63750742 161.34340844 -20.58789062 147.81933594 C-25.13051036 143.99431845 -30.4398279 141.91356158 -36 140 C-38.475 139.01 -38.475 139.01 -41 138 Z M42.4375 141.125 C40.95056641 141.99511719 40.95056641 141.99511719 39.43359375 142.8828125 C38.64142456 143.38675537 38.64142456 143.38675537 37.83325195 143.90087891 C36 145 36 145 33.61010742 146.11083984 C30.91146575 147.52199513 29.03198306 148.72040057 27 151 C25.89267202 155.50240537 26.14585299 159.77345824 26.4375 164.375 C26.47810547 165.58800781 26.51871094 166.80101562 26.56054688 168.05078125 C26.66639177 171.03795941 26.81407349 174.01691238 27 177 C28.35931641 176.22076172 28.35931641 176.22076172 29.74609375 175.42578125 C30.97654536 174.72132422 32.20701509 174.01689886 33.4375 173.3125 C34.32598633 172.80299805 34.32598633 172.80299805 35.23242188 172.28320312 C40.13280873 169.47923845 45.06340799 166.74255111 50 164 C50 155.42 50 146.84 50 138 C46.94743641 138 45.04740646 139.58505519 42.4375 141.125 Z M-81 173 C-82.93059025 188.17633206 -82.93059025 188.17633206 -78.8671875 202.109375 C-75.95495946 203.87780317 -73.23845826 204.95936431 -70 206 C-68.29357075 206.94579217 -66.60373183 207.922564 -64.9375 208.9375 C-62.13209014 210.59211528 -62.13209014 210.59211528 -59 211 C-58.85513981 206.72952167 -58.76607384 202.45967167 -58.6875 198.1875 C-58.64560547 196.97255859 -58.60371094 195.75761719 -58.56054688 194.50585938 C-58.54443359 193.34248047 -58.52832031 192.17910156 -58.51171875 190.98046875 C-58.48553467 189.90692139 -58.45935059 188.83337402 -58.43237305 187.72729492 C-58.73928802 184.80044812 -58.73928802 184.80044812 -61.34301758 183.1262207 C-63.97938298 181.80486956 -63.97938298 181.80486956 -67 182 C-67 181.34 -67 180.68 -67 180 C-68.76915475 179.01780373 -70.54038569 178.03934641 -72.3125 177.0625 C-73.29863281 176.51722656 -74.28476563 175.97195312 -75.30078125 175.41015625 C-77.98562216 173.91645768 -77.98562216 173.91645768 -81 173 Z M86 174 C86 174.66 86 175.32 86 176 C85.23236328 176.12375 85.23236328 176.12375 84.44921875 176.25 C80.95543911 177.31986553 77.94745756 179.16458984 74.8125 181 C74.17119141 181.36867187 73.52988281 181.73734375 72.86914062 182.1171875 C69.75268998 183.80843052 69.75268998 183.80843052 67 186 C66.91262355 187.85369611 66.89301847 189.71067541 66.90234375 191.56640625 C66.90556641 192.69111328 66.90878906 193.81582031 66.91210938 194.97460938 C66.92048828 196.15861328 66.92886719 197.34261719 66.9375 198.5625 C66.94201172 199.75037109 66.94652344 200.93824219 66.95117188 202.16210938 C66.96300325 205.10812226 66.97948713 208.05403681 67 211 C71.22521012 209.34541659 75.26719532 207.42473213 79.3125 205.375 C80.28026367 204.88773438 80.28026367 204.88773438 81.26757812 204.390625 C82.84597541 203.59558044 84.42311694 202.79804366 86 202 C86 201.34 86 200.68 86 200 C86.99 199.67 87.98 199.34 89 199 C89 190.42 89 181.84 89 173 C87.7763932 172.9254644 87.7763932 172.9254644 86 174 Z M-41 197 C-41 205.58 -41 214.16 -41 223 C-36.66875 225.413125 -36.66875 225.413125 -32.25 227.875 C-31.34668945 228.3788623 -30.44337891 228.88272461 -29.51269531 229.40185547 C-28.79178711 229.80291504 -28.07087891 230.20397461 -27.328125 230.6171875 C-26.22839355 231.22989502 -26.22839355 231.22989502 -25.10644531 231.85498047 C-23.09484431 232.94844462 -21.04786767 233.97606617 -19 235 C-19 226.09 -19 217.18 -19 208 C-22.63 206.02 -26.26 204.04 -30 202 C-35.0625 199.125 -35.0625 199.125 -37.22265625 197.8828125 C-38.96778215 196.85171667 -38.96778215 196.85171667 -41 197 Z M42.4375 199.6875 C41.54321289 200.19700195 41.54321289 200.19700195 40.63085938 200.71679688 C39.39604286 201.42486422 38.17071939 202.14970158 36.95458984 202.8894043 C35 204 35 204 32.76806641 204.91723633 C30.31493634 206.0540328 28.77625886 206.94819651 27 209 C26.004682 213.46834253 26.24551002 217.76349157 26.5 222.3125 C26.53609375 223.53001953 26.5721875 224.74753906 26.609375 226.00195312 C26.70357263 229.00450252 26.83497367 232.00064639 27 235 C32.25824664 232.42007026 37.46329603 229.85377259 42.4375 226.75 C45.02367812 225.13934653 47.09601144 223.96799619 50 223 C50 214.09 50 205.18 50 196 C47.48995923 196 44.6253393 198.42728647 42.4375 199.6875 Z M-81 232 C-81 240.58 -81 249.16 -81 258 C-78.48375 259.423125 -75.9675 260.84625 -73.375 262.3125 C-72.59431152 262.75505127 -71.81362305 263.19760254 -71.00927734 263.65356445 C-67.05692135 265.88259691 -63.08076976 268.01110748 -59 270 C-57.16180047 255.68481245 -57.16180047 255.68481245 -60.03125 242.08154297 C-62.80638205 239.19181283 -66.16312652 237.87731695 -70 237 C-70.99 237 -71.98 237 -73 237 C-73 236.34 -73 235.68 -73 235 C-76.80427492 232.7986134 -76.80427492 232.7986134 -81 232 Z M81.375 235.75 C80.15364583 236.453125 78.93229167 237.15625 77.7109375 237.859375 C77.16743652 238.17358398 76.62393555 238.48779297 76.06396484 238.81152344 C73.04706657 240.54872013 70.02262456 242.27278597 67 244 C67 252.58 67 261.16 67 270 C68.65 269.34 70.3 268.68 72 268 C72.70229736 267.75830078 73.40459473 267.51660156 74.12817383 267.26757812 C79.78110318 265.26531918 85.38521746 262.96421243 89 258 C91.18406002 249.58782866 90.03305277 240.53180052 89 232 C86.47820501 232 83.57389247 234.47671935 81.375 235.75 Z M-41 255 C-42.23125609 263.52029218 -43.51605578 272.63496545 -41 281 C-36.10822666 287.10420073 -28.30483751 290.56044361 -21 293 C-20.34 293 -19.68 293 -19 293 C-18.70866587 288.79313516 -18.53173221 284.58885739 -18.375 280.375 C-18.29121094 279.18519531 -18.20742187 277.99539063 -18.12109375 276.76953125 C-18.0231229 273.26217473 -18.07239572 270.38799389 -19 267 C-21.94014191 264.03308469 -25.17141356 262.5754708 -29 261 C-30.20592117 260.37754031 -31.40745182 259.74638932 -32.6015625 259.1015625 C-33.59929687 258.61429687 -34.59703125 258.12703125 -35.625 257.625 C-37.41666667 256.75 -39.20833333 255.875 -41 255 Z M41.3125 258.75 C39.49414062 259.8046875 39.49414062 259.8046875 37.67578125 260.859375 C36.8700769 261.33068848 36.8700769 261.33068848 36.0480957 261.81152344 C33.04099359 263.55649579 30.01863951 265.27506314 27 267 C27 275.58 27 284.16 27 293 C27.99 293 28.98 293 30 293 C30 292.34 30 291.68 30 291 C30.83789062 290.75507813 31.67578125 290.51015625 32.5390625 290.2578125 C36.44482371 288.83833721 39.81003295 286.98068342 43.375 284.875 C45.56125 283.59625 47.7475 282.3175 50 281 C50 272.42 50 263.84 50 255 C46.68861235 255 44.10473345 257.11126986 41.3125 258.75 Z " fill="#B88602" transform="translate(248,62)"/>
<path d="M0 0 C4.45936282 -0.3913152 6.97791276 0.78240738 10.8125 3 C11.78832031 3.556875 12.76414062 4.11375 13.76953125 4.6875 C14.87361328 5.3371875 14.87361328 5.3371875 16 6 C16 6.66 16 7.32 16 8 C16.78375 8.20625 17.5675 8.4125 18.375 8.625 C22.35941767 10.13633084 25.67594651 12.12423418 29.2890625 14.359375 C32.00365647 16.00221285 34.76182622 17.50944533 37.5625 19 C40.95375337 20.82350914 44.15630998 22.73401178 47.3125 24.9375 C51.52096377 27.82566141 55.95664102 30.02033305 60.54370117 32.24487305 C68.41523374 36.11101267 76.06261853 40.62269953 83 46 C81.68 46.33 80.36 46.66 79 47 C79 46.34 79 45.68 79 45 C77.37509046 44.97301811 75.75005367 44.95361243 74.125 44.9375 C73.22007812 44.92589844 72.31515625 44.91429687 71.3828125 44.90234375 C68.9831415 44.83750743 68.9831415 44.83750743 67 46 C66.67 45.34 66.34 44.68 66 44 C64.68 44 63.36 44 62 44 C62.66 44.33 63.32 44.66 64 45 C64 45.66 64 46.32 64 47 C64.57234375 47.13277344 65.1446875 47.26554687 65.734375 47.40234375 C67.97650875 47.99380317 70.08579619 48.73288854 72.25 49.5625 C72.95640625 49.83191406 73.6628125 50.10132813 74.390625 50.37890625 C74.92171875 50.58386719 75.4528125 50.78882813 76 51 C76 51.66 76 52.32 76 53 C78.97 53.99 78.97 53.99 82 55 C82 55.99 82 56.98 82 58 C77.09805563 56.74309119 73.59636694 54.4824351 69.5 51.65234375 C63.32760975 47.57277957 56.64858575 44.23444712 50 41 C50 40.34 50 39.68 50 39 C49.48179687 38.90847656 48.96359375 38.81695312 48.4296875 38.72265625 C45.09495693 37.73081516 42.16495158 36.09487363 39.125 34.4375 C38.4745874 34.086875 37.8241748 33.73625 37.15405273 33.375 C30.37071831 29.69834279 23.67579925 25.86764333 17 22 C17 21.34 17 20.68 17 20 C16.43152344 19.88785156 15.86304688 19.77570313 15.27734375 19.66015625 C11.94874127 18.69526119 9.25480645 16.86251596 6.31640625 15.05859375 C3.69087867 13.85873208 1.85386286 13.80370255 -1 14 C-1 14.66 -1 15.32 -1 16 C-1.59425781 16.27972656 -2.18851562 16.55945313 -2.80078125 16.84765625 C-8.72774571 19.7143529 -14.1946551 22.96157301 -19.65234375 26.64453125 C-22 28 -22 28 -25 28 C-25 28.66 -25 29.32 -25 30 C-25.71542969 30.3403125 -26.43085938 30.680625 -27.16796875 31.03125 C-34.01585712 34.36217629 -40.4871778 38.0608579 -46.94140625 42.09765625 C-49.64557393 43.77955875 -52.36103938 45.41867407 -55.125 47 C-56.14980469 47.5878125 -56.14980469 47.5878125 -57.1953125 48.1875 C-59 49 -59 49 -62 49 C-62 49.66 -62 50.32 -62 51 C-70.91 55.95 -70.91 55.95 -80 61 C-80.33 60.34 -80.66 59.68 -81 59 C-80.34 59 -79.68 59 -79 59 C-79 58.34 -79 57.68 -79 57 C-78.34 57 -77.68 57 -77 57 C-77.33 55.35 -77.66 53.7 -78 52 C-80.97 52 -83.94 52 -87 52 C-87 51.34 -87 50.68 -87 50 C-86.32195312 49.63648438 -85.64390625 49.27296875 -84.9453125 48.8984375 C-80.25193792 46.36323517 -75.60759092 43.79356808 -71.0625 41 C-67.53770591 38.85181841 -63.96975785 36.97593986 -60.25 35.1875 C-55.0156942 32.63058847 -50.20676101 29.60675616 -45.36352539 26.39404297 C-41.26808261 23.71636187 -37.0939876 21.4352028 -32.6875 19.3125 C-27.90131858 16.99677789 -23.51700241 14.5180456 -19.16015625 11.48046875 C-5.32717678 2 -5.32717678 2 0 2 C0 1.34 0 0.68 0 0 Z " fill="#B98A17" transform="translate(248,62)"/>
<path d="M0 0 C0.66 0.33 1.32 0.66 2 1 C1.67 1.66 1.34 2.32 1 3 C-0.32 3 -1.64 3 -3 3 C-3 3.66 -3 4.32 -3 5 C-3.66 5 -4.32 5 -5 5 C-5 6.32 -5 7.64 -5 9 C-8.75 10.125 -8.75 10.125 -11 9 C-10.67 9.99 -10.34 10.98 -10 12 C-10.99 12 -11.98 12 -13 12 C-13.33 92.85 -13.66 173.7 -14 257 C-14.66 257 -15.32 257 -16 257 C-16 175.16 -16 93.32 -16 9 C-10.72 6.03 -5.44 3.06 0 0 Z " fill="#BCA058" transform="translate(159,114)"/>
<path d="M0 0 C4.45936282 -0.3913152 6.97791276 0.78240738 10.8125 3 C11.78832031 3.556875 12.76414062 4.11375 13.76953125 4.6875 C14.50558594 5.120625 15.24164063 5.55375 16 6 C16 6.66 16 7.32 16 8 C16.78375 8.20625 17.5675 8.4125 18.375 8.625 C22.45583792 10.17290404 25.8836457 12.24778866 29.5859375 14.53515625 C32.32823233 16.1991701 35.10337683 17.62791534 38 19 C38 19.33 38 19.66 38 20 C36.35 20 34.7 20 33 20 C32.505 21.485 32.505 21.485 32 23 C29.9375 23.6875 29.9375 23.6875 28 24 C28.66 24.99 29.32 25.98 30 27 C29.01 27.495 29.01 27.495 28 28 C25.3984375 26.78515625 25.3984375 26.78515625 22.375 25.0625 C21.37210937 24.49660156 20.36921875 23.93070313 19.3359375 23.34765625 C18.56507813 22.90292969 17.79421875 22.45820312 17 22 C17 21.34 17 20.68 17 20 C16.43796875 19.88785156 15.8759375 19.77570313 15.296875 19.66015625 C12.68486892 18.90942661 10.60528678 17.78832624 8.25 16.4375 C7.45078125 15.98246094 6.6515625 15.52742188 5.828125 15.05859375 C5.22484375 14.70925781 4.6215625 14.35992187 4 14 C7.35370179 12.8820994 7.75635844 13.12334012 11 14 C13.662062 14.3832143 16.32819962 14.68828996 19 15 C19 13.68 19 12.36 19 11 C18.34 11 17.68 11 17 11 C17 10.34 17 9.68 17 9 C16.01 9 15.02 9 14 9 C14 8.34 14 7.68 14 7 C12.68 7 11.36 7 10 7 C10 6.34 10 5.68 10 5 C8.02 5 6.04 5 4 5 C4 4.34 4 3.68 4 3 C0.99740483 2.66781808 0.99740483 2.66781808 -0.6875 4.5 C-1.120625 4.995 -1.55375 5.49 -2 6 C-1.67 6.66 -1.34 7.32 -1 8 C-2.65 8 -4.3 8 -6 8 C-6 7.34 -6 6.68 -6 6 C-6.66 5.67 -7.32 5.34 -8 5 C-3.375 2 -3.375 2 0 2 C0 1.34 0 0.68 0 0 Z " fill="#BB8E20" transform="translate(248,62)"/>
<path d="M0 0 C0.99 0.33 1.98 0.66 3 1 C3.18245134 32.5085406 3.32405132 64.01693109 3.40852264 95.52587638 C3.41852844 99.24470948 3.428883 102.96354152 3.43945312 106.68237305 C3.44155161 107.42273396 3.44365009 108.16309487 3.44581217 108.92589096 C3.48063487 120.91808246 3.54371777 132.90996755 3.61722237 144.9019772 C3.69200159 157.20442723 3.73646312 169.50671666 3.75270796 181.80938464 C3.76369217 189.40266294 3.79839759 196.99507525 3.86333174 204.588087 C3.91056927 210.40777532 3.91565005 216.22701779 3.90486145 222.04690361 C3.90706721 224.4362802 3.92304564 226.82568877 3.9536438 229.21487045 C3.99332535 232.47236057 3.98393088 235.72611578 3.96203613 238.98368835 C3.98533886 239.93407932 4.0086416 240.88447029 4.03265047 241.86366099 C3.91885885 248.10631242 3.91885885 248.10631242 1.224967 250.72640765 C-3.82733957 254 -3.82733957 254 -7 254 C-7 253.01 -7 252.02 -7 251 C-6.01 251 -5.02 251 -4 251 C-4 250.34 -4 249.68 -4 249 C-1.525 248.01 -1.525 248.01 1 247 C1.02279832 215.96690874 1.0405023 184.93381968 1.05106533 153.90072204 C1.05231608 150.23939736 1.0536104 146.5780727 1.05493164 142.91674805 C1.05532511 141.82336344 1.05532511 141.82336344 1.05572652 140.70789025 C1.06008127 128.89557053 1.06796776 117.08325567 1.0771528 105.27093884 C1.08649473 93.15606171 1.09205676 81.04118713 1.09408849 68.92630655 C1.09546259 61.447019 1.09980711 53.96774516 1.10791647 46.48846183 C1.11381283 40.7593975 1.11445759 35.03034201 1.11310768 29.30127525 C1.11338379 26.94658829 1.11538606 24.59190083 1.11920547 22.23721695 C1.1241502 19.03277423 1.12299535 15.82839112 1.12025452 12.62394714 C1.12316736 11.68329428 1.1260802 10.74264142 1.12908131 9.77348393 C1.12709026 8.91756227 1.12509921 8.0616406 1.12304783 7.17978191 C1.12342755 6.43970699 1.12380727 5.69963207 1.1241985 4.93713063 C1.06858322 2.78094978 1.06858322 2.78094978 0 0 Z " fill="#B08731" transform="translate(355,122)"/>
<path d="M0 0 C5.49163902 2.64453928 10.7737364 5.40589833 15.90234375 8.69921875 C19.11382441 10.69069558 22.44372778 12.45028775 25.76953125 14.2421875 C29.76365857 16.41553369 33.72635277 18.64225786 37.6875 20.875 C38.40744141 21.28073242 39.12738281 21.68646484 39.86914062 22.10449219 C41.57974941 23.06909007 43.28992246 24.03446061 45 25 C43.02 25.99 43.02 25.99 41 27 C41 26.34 41 25.68 41 25 C39.37509046 24.97301811 37.75005367 24.95361243 36.125 24.9375 C35.22007812 24.92589844 34.31515625 24.91429688 33.3828125 24.90234375 C30.9831415 24.83750743 30.9831415 24.83750743 29 26 C28.67 25.34 28.34 24.68 28 24 C26.68 24 25.36 24 24 24 C24.66 24.33 25.32 24.66 26 25 C26 25.66 26 26.32 26 27 C26.57234375 27.13277344 27.1446875 27.26554687 27.734375 27.40234375 C29.97650875 27.99380317 32.08579619 28.73288854 34.25 29.5625 C34.95640625 29.83191406 35.6628125 30.10132812 36.390625 30.37890625 C36.92171875 30.58386719 37.4528125 30.78882812 38 31 C38 31.66 38 32.32 38 33 C39.98 33.66 41.96 34.32 44 35 C44 35.99 44 36.98 44 38 C39.09805563 36.74309119 35.59636694 34.4824351 31.5 31.65234375 C25.32760975 27.57277957 18.64858575 24.23444712 12 21 C16.8870428 19.4361463 22.1129572 19.4361463 27 21 C27 19.68 27 18.36 27 17 C23.7 16.67 20.4 16.34 17 16 C17 15.34 17 14.68 17 14 C16.34 14.66 15.68 15.32 15 16 C13 14 13 14 12.125 12.0625 C10.79740543 9.62857662 9.20934544 8.62018665 7 7 C7 6.34 7 5.68 7 5 C4.69 5.33 2.38 5.66 0 6 C0 4 0 2 0 0 Z " fill="#B9860F" transform="translate(286,82)"/>
<path d="M0 0 C3.13040691 0.75561546 6.10537634 1.55268817 9 3 C9 3.66 9 4.32 9 5 C10.32 5 11.64 5 13 5 C13 5.66 13 6.32 13 7 C13.99 7 14.98 7 16 7 C16 7.66 16 8.32 16 9 C16.66 9 17.32 9 18 9 C18 10.32 18 11.64 18 13 C16.68 13.33 15.36 13.66 14 14 C14 13.34 14 12.68 14 12 C12.9275 12.20625 11.855 12.4125 10.75 12.625 C6.8084075 13.01915925 6.25932409 12.73151592 3 11 C0.66796188 10.9222654 -1.66839059 10.91032272 -4 11 C-4 11.66 -4 12.32 -4 13 C-4.99 13 -5.98 13 -7 13 C-7 13.66 -7 14.32 -7 15 C-8.65 15 -10.3 15 -12 15 C-12 14.34 -12 13.68 -12 13 C-12.66 12.67 -13.32 12.34 -14 12 C-14 11.34 -14 10.68 -14 10 C-14.66 9.67 -15.32 9.34 -16 9 C-13.525 9.495 -13.525 9.495 -11 10 C-11 9.34 -11 8.68 -11 8 C-11.66 7.67 -12.32 7.34 -13 7 C-12.01 7 -11.02 7 -10 7 C-9.67 6.01 -9.34 5.02 -9 4 C-8.01 3.67 -7.02 3.34 -6 3 C-6 3.66 -6 4.32 -6 5 C-5.01 5 -4.02 5 -3 5 C-3.66 4.34 -4.32 3.68 -5 3 C-3.68 3 -2.36 3 -1 3 C-0.67 2.01 -0.34 1.02 0 0 Z " fill="#B98505" transform="translate(249,64)"/>
<path d="M0 0 C0.66 0.33 1.32 0.66 2 1 C1.01 1.99 0.02 2.98 -1 4 C-0.01 5.98 0.98 7.96 2 10 C-3.21028365 11.51571888 -7.53732203 12.08720216 -12.9453125 11.9375 C-15.602488 12.01832663 -17.65172231 12.78798571 -20 14 C-19.67 14.66 -19.34 15.32 -19 16 C-18.34 16 -17.68 16 -17 16 C-16.67 15.34 -16.34 14.68 -16 14 C-15.01 14.33 -14.02 14.66 -13 15 C-12.67 16.65 -12.34 18.3 -12 20 C-12 19.34 -12 18.68 -12 18 C-10.35 17.34 -8.7 16.68 -7 16 C-7.66 15.34 -8.32 14.68 -9 14 C-8 13 -8 13 -5.71484375 12.90234375 C-4.34005859 12.91974609 -4.34005859 12.91974609 -2.9375 12.9375 C-2.01839844 12.94652344 -1.09929687 12.95554687 -0.15234375 12.96484375 C0.55792969 12.97644531 1.26820313 12.98804687 2 13 C-1.625 16 -1.625 16 -5 16 C-5 16.66 -5 17.32 -5 18 C-10.94 21.3 -16.88 24.6 -23 28 C-23.33 27.34 -23.66 26.68 -24 26 C-23.34 26 -22.68 26 -22 26 C-22 25.34 -22 24.68 -22 24 C-21.34 24 -20.68 24 -20 24 C-20.33 22.35 -20.66 20.7 -21 19 C-23.97 19 -26.94 19 -30 19 C-30 18.34 -30 17.68 -30 17 C-29.32195312 16.63648437 -28.64390625 16.27296875 -27.9453125 15.8984375 C-23.19768982 13.33393218 -18.49157865 10.73212701 -13.875 7.9375 C-10.59568673 5.95733959 -7.31630972 3.98023821 -4 2.0625 C-3.278125 1.64097656 -2.55625 1.21945313 -1.8125 0.78515625 C-1.214375 0.52605469 -0.61625 0.26695313 0 0 Z " fill="#BC9028" transform="translate(191,95)"/>
<path d="M0 0 C13.73913043 0 13.73913043 0 16.8125 2.4375 C18 4 18 4 18 6 C19.65 6 21.3 6 23 6 C23 8 23 10 23 12 C24.0725 11.979375 25.145 11.95875 26.25 11.9375 C29.14790424 11.9857984 31.28612141 12.13155885 34 13 C34 11.02 34 9.04 34 7 C31.29120665 5.64560332 28.99066732 5.93498549 26 6 C26.33 5.34 26.66 4.68 27 4 C28.890625 3.62109375 28.890625 3.62109375 31.25 3.4375 C34.56286973 3.14161371 37.74945701 2.73399358 41 2 C41 4 41 4 38.5 6.625 C37.675 7.40875 36.85 8.1925 36 9 C36.7425 8.649375 37.485 8.29875 38.25 7.9375 C41.21122875 6.9279902 42.12062561 7.12019116 45 8 C42.82493404 9.37864791 40.63864381 10.72664879 38.4375 12.0625 C37.82841797 12.45244141 37.21933594 12.84238281 36.59179688 13.24414062 C33.17965755 15.28420276 31.42820612 16.01097964 27.34375 15.90625 C24.21752324 15.0589549 21.8279439 14.09676634 19.0625 12.4375 C18.29035156 11.98246094 17.51820313 11.52742188 16.72265625 11.05859375 C16.15417969 10.70925781 15.58570313 10.35992187 15 10 C15 9.34 15 8.68 15 8 C14.45859375 7.89816406 13.9171875 7.79632813 13.359375 7.69140625 C10.39403419 6.82242393 7.94475054 5.44527709 5.25 3.9375 C4.26515625 3.38964844 3.2803125 2.84179688 2.265625 2.27734375 C1.51796875 1.85582031 0.7703125 1.43429687 0 1 C0 0.67 0 0.34 0 0 Z " fill="#B8850E" transform="translate(222,416)"/>
<path d="M0 0 C0.66 0.66 1.32 1.32 2 2 C4.44963177 2.02253443 4.44963177 2.02253443 7.125 1.625 C8.03507812 1.51414062 8.94515625 1.40328125 9.8828125 1.2890625 C10.58148438 1.19367188 11.28015625 1.09828125 12 1 C9.05897695 3.28974755 6.02453117 5.23668626 2.8125 7.125 C-0.27287764 8.82421779 -0.27287764 8.82421779 -3 11 C-3.07373625 14.11526102 -3.0880835 17.21304895 -3.0703125 20.328125 C-3.07889903 22.26172774 -3.0893758 24.19532285 -3.1015625 26.12890625 C-3.11825245 29.18856691 -3.12502882 32.24653117 -3.09960938 35.30615234 C-3.07863879 38.25204226 -3.10189025 41.19488058 -3.1328125 44.140625 C-3.11542023 45.05225403 -3.09802795 45.96388306 -3.08010864 46.90313721 C-3.19739704 53.08536144 -3.19739704 53.08536144 -5.51068115 55.72155762 C-8.50044311 57.96813135 -10.19848218 59 -14 59 C-14 59.66 -14 60.32 -14 61 C-14.66 60.67 -15.32 60.34 -16 60 C-16 59.34 -16 58.68 -16 58 C-14.68 58 -13.36 58 -12 58 C-12 57.34 -12 56.68 -12 56 C-11.34 55.34 -10.68 54.68 -10 54 C-8.68 54 -7.36 54 -6 54 C-6 39.15 -6 24.3 -6 9 C-4.68 8.34 -3.36 7.68 -2 7 C-1.67 6.34 -1.34 5.68 -1 5 C-1.66 5 -2.32 5 -3 5 C-2.67 4.01 -2.34 3.02 -2 2 C-1.34 2 -0.68 2 0 2 C0 1.34 0 0.68 0 0 Z " fill="#B79C43" transform="translate(301,352)"/>
<path d="M0 0 C0.33 0 0.66 0 1 0 C0.9779248 0.72590332 0.95584961 1.45180664 0.93310547 2.19970703 C0.86176523 5.50936588 0.86767615 8.81461881 0.875 12.125 C0.83890625 13.26710937 0.8028125 14.40921875 0.765625 15.5859375 C0.72822185 21.84740354 0.72822185 21.84740354 3.91503906 26.93261719 C6.82561435 28.76352097 6.82561435 28.76352097 12 31 C15.63 32.98 19.26 34.96 23 37 C23 28.42 23 19.84 23 11 C21.35 10.34 19.7 9.68 18 9 C17.01 8.34 16.02 7.68 15 7 C15.721875 7.144375 16.44375 7.28875 17.1875 7.4375 C18.115625 7.623125 19.04375 7.80875 20 8 C20.88300781 8.17660156 21.76601562 8.35320312 22.67578125 8.53515625 C23.44277344 8.68855469 24.20976562 8.84195313 25 9 C25.12847075 19.06354218 24.79692838 28.96724089 24 39 C22.12109375 39.609375 22.12109375 39.609375 20 40 C18.0625 38.25 18.0625 38.25 16 36 C13.25911687 34.12465891 10.91764103 32.97307495 7.75 31.9375 C5 31 5 31 4 29 C3.01 28.67 2.02 28.34 1 28 C-1.33523916 24.49714126 -1.18495942 23.34370062 -0.9765625 19.23828125 C-0.925 18.12001953 -0.8734375 17.00175781 -0.8203125 15.84960938 C-0.75585938 14.68236328 -0.69140625 13.51511719 -0.625 12.3125 C-0.56828125 11.13365234 -0.5115625 9.95480469 -0.453125 8.74023438 C-0.31155328 5.82621648 -0.16013058 2.91304743 0 0 Z " fill="#B69041" transform="translate(166,236)"/>
<path d="M0 0 C1.32 0 2.64 0 4 0 C3.67 1.32 3.34 2.64 3 4 C3.66 4 4.32 4 5 4 C5 2.68 5 1.36 5 0 C7.475 0.495 7.475 0.495 10 1 C6.60063328 4.88999697 2.77568943 6.9401018 -1.75 9.25 C-2.79607422 9.79527344 -2.79607422 9.79527344 -3.86328125 10.3515625 C-5.57205654 11.24106197 -7.28556498 12.12145867 -9 13 C-9.02892385 17.12498538 -9.04677267 21.24994485 -9.0625 25.375 C-9.07087891 26.550625 -9.07925781 27.72625 -9.08789062 28.9375 C-9.09111328 30.05898438 -9.09433594 31.18046875 -9.09765625 32.3359375 C-9.10289307 33.37282715 -9.10812988 34.4097168 -9.11352539 35.47802734 C-9.17140815 37.9959668 -9.17140815 37.9959668 -8 40 C-8.99 40 -9.98 40 -11 40 C-12.07917226 36.76248322 -12.11425601 34.42248229 -12.09765625 31.01953125 C-12.09443359 29.85615234 -12.09121094 28.69277344 -12.08789062 27.49414062 C-12.07951172 26.27919922 -12.07113281 25.06425781 -12.0625 23.8125 C-12.05798828 22.58595703 -12.05347656 21.35941406 -12.04882812 20.09570312 C-12.03703065 17.06375332 -12.02056921 14.03190094 -12 11 C-10.68 11 -9.36 11 -8 11 C-7.34 9.68 -6.68 8.36 -6 7 C-5.34 7.33 -4.68 7.66 -4 8 C-4 6.35 -4 4.7 -4 3 C-3.34 2.67 -2.68 2.34 -2 2 C-1.34 2.33 -0.68 2.66 0 3 C0 2.01 0 1.02 0 0 Z " fill="#BC9746" transform="translate(285,258)"/>
<path d="M0 0 C0.80179687 0.10183594 1.60359375 0.20367187 2.4296875 0.30859375 C3.23664063 0.41300781 4.04359375 0.51742187 4.875 0.625 C5.96167969 0.73521484 5.96167969 0.73521484 7.0703125 0.84765625 C10.95370139 1.25371402 14.48096577 1.62850928 17.875 3.625 C19.1875 6.25 19.1875 6.25 19.875 8.625 C19.215 8.625 18.555 8.625 17.875 8.625 C17.875 9.285 17.875 9.945 17.875 10.625 C17.1325 10.46 16.39 10.295 15.625 10.125 C12.68493422 9.50574304 12.68493422 9.50574304 8.875 9.625 C8.875 8.965 8.875 8.305 8.875 7.625 C5.245 6.305 1.615 4.985 -2.125 3.625 C-2.125 2.965 -2.125 2.305 -2.125 1.625 C-3.445 1.295 -4.765 0.965 -6.125 0.625 C-3.70378025 -0.58560988 -2.65600415 -0.34241169 0 0 Z " fill="#B78605" transform="translate(314.125,105.375)"/>
<path d="M0 0 C1.32 0 2.64 0 4 0 C4.12375 1.175625 4.12375 1.175625 4.25 2.375 C4.72806339 5.14749104 4.72806339 5.14749104 7.0625 6.3125 C7.701875 6.539375 8.34125 6.76625 9 7 C6.74259377 9.33524782 4.7194239 11.18705073 2 13 C1.01 13 0.02 13 -1 13 C-1 13.66 -1 14.32 -1 15 C-3.93830197 13.53084902 -5.80991549 11.42061972 -8 9 C-8 8.01 -8 7.02 -8 6 C-6.35 6 -4.7 6 -3 6 C-3 5.34 -3 4.68 -3 4 C-2.34 4 -1.68 4 -1 4 C-0.67 2.68 -0.34 1.36 0 0 Z " fill="#B98510" transform="translate(224,77)"/>
<path d="M0 0 C1.010625 0.185625 2.02125 0.37125 3.0625 0.5625 C7.51765095 1.2235237 7.51765095 1.2235237 14 0 C14 8.91 14 17.82 14 27 C13.67 27 13.34 27 13 27 C12.505 14.625 12.505 14.625 12 2 C9.793125 3.258125 7.58625 4.51625 5.3125 5.8125 C4.62712158 6.20284424 3.94174316 6.59318848 3.2355957 6.99536133 C2.67960693 7.3127124 2.12361816 7.63006348 1.55078125 7.95703125 C0.94572754 8.3020166 0.34067383 8.64700195 -0.28271484 9.00244141 C-1.8163119 9.89329691 -3.32606811 10.82490581 -4.83203125 11.76171875 C-7 13 -7 13 -9 13 C-9 21.25 -9 29.5 -9 38 C-9.33 38 -9.66 38 -10 38 C-10.02886338 33.52084672 -10.04675187 29.04171709 -10.0625 24.5625 C-10.07087891 23.28310547 -10.07925781 22.00371094 -10.08789062 20.68554688 C-10.09111328 19.47060547 -10.09433594 18.25566406 -10.09765625 17.00390625 C-10.10289307 15.87799072 -10.10812988 14.7520752 -10.11352539 13.59204102 C-10 11 -10 11 -9 10 C-7.33382885 9.95936168 -5.66611905 9.957279 -4 10 C-4 8.35 -4 6.7 -4 5 C-1.03 5.495 -1.03 5.495 2 6 C1.34 5.01 0.68 4.02 0 3 C0 2.01 0 1.02 0 0 Z " fill="#D4BA77" transform="translate(324,293)"/>
<path d="M0 0 C0.66 0 1.32 0 2 0 C2 0.66 2 1.32 2 2 C2.66 2 3.32 2 4 2 C4.66 3.65 5.32 5.3 6 7 C2.89656201 5.79310745 -0.01193893 4.49403054 -3 3 C-3 11.58 -3 20.16 -3 29 C-1.02 29.66 0.96 30.32 3 31 C3.66 31.66 4.32 32.32 5 33 C2.03 33.495 2.03 33.495 -1 34 C-1 33.34 -1 32.68 -1 32 C-1.99 32 -2.98 32 -4 32 C-4 31.34 -4 30.68 -4 30 C-4.99 30.33 -5.98 30.66 -7 31 C-7 29.35 -7 27.7 -7 26 C-6.34 26 -5.68 26 -5 26 C-5 19.73 -5 13.46 -5 7 C-5.66 6.67 -6.32 6.34 -7 6 C-6.34 6 -5.68 6 -5 6 C-4.67 4.68 -4.34 3.36 -4 2 C-2.68 2 -1.36 2 0 2 C0 1.34 0 0.68 0 0 Z " fill="#B78D29" transform="translate(210,256)"/>
<path d="M0 0 C2.31 0.66 4.62 1.32 7 2 C7 2.66 7 3.32 7 4 C9.31 4.33 11.62 4.66 14 5 C14 5.66 14 6.32 14 7 C15.32 6.67 16.64 6.34 18 6 C18.66 7.98 19.32 9.96 20 12 C16.2089881 10.55049545 12.6125362 8.84827434 9 7 C9 6.34 9 5.68 9 5 C8.4225 4.87625 7.845 4.7525 7.25 4.625 C5 4 5 4 1 2 C1 10.58 1 19.16 1 28 C0.34 28 -0.32 28 -1 28 C-1.02886338 23.52084672 -1.04675187 19.04171709 -1.0625 14.5625 C-1.07087891 13.28310547 -1.07925781 12.00371094 -1.08789062 10.68554688 C-1.09111328 9.47060547 -1.09433594 8.25566406 -1.09765625 7.00390625 C-1.10289307 5.87799072 -1.10812988 4.7520752 -1.11352539 3.59204102 C-1 1 -1 1 0 0 Z " fill="#AE872F" transform="translate(166,292)"/>
<path d="M0 0 C1.98 0 3.96 0 6 0 C6.125 2.625 6.125 2.625 5 6 C1.92328147 8.45885292 -1.51650795 10.18354101 -5 12 C-7.00056641 13.10314009 -9.00058157 14.20728058 -11 15.3125 C-13.32186139 16.56907555 -15.63872969 17.81936485 -18 19 C-17.67 17.35 -17.34 15.7 -17 14 C-16.13375 13.87625 -16.13375 13.87625 -15.25 13.75 C-12.39201069 12.7973369 -11.07045412 11.13946926 -9 9 C-8.34 9 -7.68 9 -7 9 C-7 8.34 -7 7.68 -7 7 C-7.99 7 -8.98 7 -10 7 C-9.67 6.01 -9.34 5.02 -9 4 C-7.35 4 -5.7 4 -4 4 C-3.67 3.34 -3.34 2.68 -3 2 C-2.67 3.32 -2.34 4.64 -2 6 C-0.35 5.67 1.3 5.34 3 5 C3 4.01 3 3.02 3 2 C2.01 2 1.02 2 0 2 C0 1.34 0 0.68 0 0 Z " fill="#BA8D25" transform="translate(293,194)"/>
<path d="M0 0 C1.32 0 2.64 0 4 0 C4 2 4 2 1.5 4.625 C0.675 5.40875 -0.15 6.1925 -1 7 C-0.2575 6.649375 0.485 6.29875 1.25 5.9375 C4.21122875 4.9279902 5.12062561 5.12019116 8 6 C5.82493404 7.37864791 3.63864381 8.72664879 1.4375 10.0625 C0.82841797 10.45244141 0.21933594 10.84238281 -0.40820312 11.24414062 C-3.86881602 13.31318431 -5.62573538 14.00657963 -9.77734375 13.93359375 C-12.85192723 13.04289623 -14.13102599 12.52861189 -16 10 C-14.58344207 9.9727585 -13.16672955 9.95349533 -11.75 9.9375 C-10.56664062 9.92009766 -10.56664062 9.92009766 -9.359375 9.90234375 C-7.09308998 9.99614694 -5.1711105 10.36758937 -3 11 C-3 9.02 -3 7.04 -3 5 C-5.70879335 3.64560332 -8.00933268 3.93498549 -11 4 C-10.67 3.34 -10.34 2.68 -10 2 C-7.96875 1.62109375 -7.96875 1.62109375 -5.5 1.4375 C-2.45018475 1.4207737 -2.45018475 1.4207737 0 0 Z " fill="#B98C20" transform="translate(259,418)"/>
<path d="M0 0 C4.31818769 0.49070315 6.64592141 1.29509791 10 4 C12.65593204 5.32796602 14.22583258 6.11059535 17.1875 5.6875 C19.05947732 5.01231601 19.05947732 5.01231601 21 4 C20.95875 4.78375 20.9175 5.5675 20.875 6.375 C20.71271266 9.16116119 20.71271266 9.16116119 23 11 C23.22705078 13.88916016 23.22705078 13.88916016 23.1953125 17.5390625 C23.18886719 18.84101563 23.18242187 20.14296875 23.17578125 21.484375 C23.15906929 22.86458595 23.14213939 24.24479429 23.125 25.625 C23.11497006 27.01301452 23.10584423 28.40103589 23.09765625 29.7890625 C23.07401863 33.19288026 23.04106867 36.59635506 23 40 C22.34 39.67 21.68 39.34 21 39 C21.33 30.42 21.66 21.84 22 13 C20.35 12.34 18.7 11.68 17 11 C11.1904594 8.02743434 5.32909661 4.7753818 0 1 C0 0.67 0 0.34 0 0 Z " fill="#DABF78" transform="translate(207,316)"/>
<path d="M0 0 C2.97 0.33 5.94 0.66 9 1 C6.42961093 3.05631125 4.57901861 4.14642831 1.40625 5.25 C-0.55530389 6.23172351 -0.55530389 6.23172351 -2 8 C-3.0590974 12.56767495 -2.97831065 17.07838116 -2.9375 21.75 C-2.95361328 23.01972656 -2.96972656 24.28945313 -2.98632812 25.59765625 C-3.02168758 28.73286122 -3.02503858 31.86479003 -3 35 C-3.66 35 -4.32 35 -5 35 C-5.05813173 30.43755363 -5.09364122 25.87520276 -5.125 21.3125 C-5.14175781 20.01892578 -5.15851563 18.72535156 -5.17578125 17.39257812 C-5.18222656 16.14541016 -5.18867188 14.89824219 -5.1953125 13.61328125 C-5.20578613 12.46641846 -5.21625977 11.31955566 -5.22705078 10.13793945 C-5.00058489 7.00808345 -4.33456032 4.81920095 -3 2 C-2.01 2.33 -1.02 2.66 0 3 C0 2.01 0 1.02 0 0 Z " fill="#CAA85F" transform="translate(318,240)"/>
<path d="M0 0 C0.33 0 0.66 0 1 0 C1 13.86 1 27.72 1 42 C-2.74267294 40.50293082 -6.10164854 38.96976877 -9.625 37.0625 C-10.56601563 36.55847656 -11.50703125 36.05445313 -12.4765625 35.53515625 C-14.69528553 34.18537583 -16.28571415 32.92713342 -18 31 C-16.68 31 -15.36 31 -14 31 C-14 31.66 -14 32.32 -14 33 C-12.948125 33.185625 -12.948125 33.185625 -11.875 33.375 C-8.82343613 34.03838345 -5.94659062 34.97211955 -3 36 C-0.68941015 32.35170023 -0.65718401 28.79931605 -0.5859375 24.609375 C-0.56657135 23.90476135 -0.5472052 23.20014771 -0.5272522 22.47418213 C-0.46767265 20.23290961 -0.42115877 17.99158511 -0.375 15.75 C-0.33680021 14.22654062 -0.29774731 12.70310238 -0.2578125 11.1796875 C-0.16198982 7.45331894 -0.07787893 3.72679165 0 0 Z " fill="#BE9E50" transform="translate(183,352)"/>
<path d="M0 0 C2.31 0 4.62 0 7 0 C7.33 12.87 7.66 25.74 8 39 C10.64 39 13.28 39 16 39 C9.40909091 44 9.40909091 44 6 44 C5.505 23.21 5.505 23.21 5 2 C3.02 2.99 1.04 3.98 -1 5 C-1 2 -1 2 0 0 Z " fill="#AD842B" transform="translate(314,348)"/>
<path d="M0 0 C0.33 0 0.66 0 1 0 C1.04947698 3.93265896 1.08575578 7.86519714 1.10986328 11.7980957 C1.12485495 13.79319618 1.15026731 15.78820946 1.17578125 17.78320312 C1.18222656 19.03681641 1.18867188 20.29042969 1.1953125 21.58203125 C1.20578613 22.73936768 1.21625977 23.8967041 1.22705078 25.08911133 C1 28 1 28 -1 31 C-1.66 31 -2.32 31 -3 31 C-3 30.34 -3 29.68 -3 29 C-5.0399719 30.36323743 -5.0399719 30.36323743 -7 32 C-7 32.66 -7 33.32 -7 34 C-8.65 33.67 -10.3 33.34 -12 33 C-12 34.32 -12 35.64 -12 37 C-14.31 36.67 -16.62 36.34 -19 36 C-15.71195019 33.08772731 -13.40114397 31.50298788 -9 31 C-9 30.34 -9 29.68 -9 29 C-2.25 25 -2.25 25 0 25 C0 16.75 0 8.5 0 0 Z " fill="#CFBE78" transform="translate(337,178)"/>
<path d="M0 0 C5.5013249 2.64920359 10.77658883 5.41931451 15.90625 8.73046875 C19.79533665 11.08859032 23.90512666 13.02808354 28 15 C24.32264395 16.22578535 23.44933477 15.46596728 20 14 C19.01 14 18.02 14 17 14 C16.34 14.66 15.68 15.32 15 16 C13 14 13 14 12.125 12.0625 C10.79740543 9.62857662 9.20934544 8.62018665 7 7 C7 6.34 7 5.68 7 5 C4.69 5.33 2.38 5.66 0 6 C0 4 0 2 0 0 Z " fill="#BE983C" transform="translate(286,82)"/>
<path d="M0 0 C4.76551013 1.37605916 8.7248553 3.46778066 12.875 6.125 C13.46796875 6.49753906 14.0609375 6.87007813 14.671875 7.25390625 C16.1181343 8.16365 17.55958046 9.08103798 19 10 C15.65620114 12.22919924 14.87041541 12.35185595 11 12 C8.65269935 11.38431458 6.31543043 10.72640955 4 10 C4.185625 9.401875 4.37125 8.80375 4.5625 8.1875 C5.22093687 5.83591238 5.22093687 5.83591238 4 3 C1.98491642 2.26676204 1.98491642 2.26676204 0 2 C0 1.34 0 0.68 0 0 Z " fill="#B38608" transform="translate(306,114)"/>
<path d="M0 0 C1.2065625 0.0309375 1.2065625 0.0309375 2.4375 0.0625 C2.4375 1.0525 2.4375 2.0425 2.4375 3.0625 C-0.2025 3.3925 -2.8425 3.7225 -5.5625 4.0625 C-5.8925 5.0525 -6.2225 6.0425 -6.5625 7.0625 C-8.2125 7.3925 -9.8625 7.7225 -11.5625 8.0625 C-11.5625 8.7225 -11.5625 9.3825 -11.5625 10.0625 C-12.2225 9.7325 -12.8825 9.4025 -13.5625 9.0625 C-13.2325 7.7425 -12.9025 6.4225 -12.5625 5.0625 C-13.14 5.206875 -13.7175 5.35125 -14.3125 5.5 C-16.39583333 6.02083333 -18.47916667 6.54166667 -20.5625 7.0625 C-19.5625 4.0625 -19.5625 4.0625 -17.6875 2.375 C-13.63546661 0.67314598 -10.23711583 0.880363 -5.890625 1.0546875 C-5.12234375 1.05726562 -4.3540625 1.05984375 -3.5625 1.0625 C-2.5625 0.0625 -2.5625 0.0625 0 0 Z " fill="#B78506" transform="translate(190.5625,104.9375)"/>
<path d="M0 0 C0.66 0 1.32 0 2 0 C2 0.66 2 1.32 2 2 C2.66 2 3.32 2 4 2 C4 2.66 4 3.32 4 4 C4.66 4.33 5.32 4.66 6 5 C4.68 4.67 3.36 4.34 2 4 C1.67 12.25 1.34 20.5 1 29 C1.99 29.33 2.98 29.66 4 30 C3.67 30.66 3.34 31.32 3 32 C1.02 32 -0.96 32 -3 32 C-2.67 31.34 -2.34 30.68 -2 30 C-1.85722938 27.83470692 -1.77359886 25.66539529 -1.71875 23.49609375 C-1.68136719 22.19865234 -1.64398438 20.90121094 -1.60546875 19.56445312 C-1.55175254 17.49490062 -1.49969409 15.42531065 -1.44775391 13.35571289 C-1.39613313 11.36073566 -1.33878322 9.36590923 -1.28125 7.37109375 C-1.25095703 6.17411865 -1.22066406 4.97714355 -1.18945312 3.74389648 C-1 1 -1 1 0 0 Z " fill="#B28B35" transform="translate(206,197)"/>
<path d="M0 0 C2.0625 0.4375 2.0625 0.4375 4 1 C3.34 3.31 2.68 5.62 2 8 C2.763125 8 3.52625 8 4.3125 8 C6.20833333 8 8.10416667 8 10 8 C9.67854004 8.53915039 9.35708008 9.07830078 9.02587891 9.63378906 C7.78523049 12.49537032 7.68127467 14.74502744 7.5859375 17.859375 C7.52792969 19.53193359 7.52792969 19.53193359 7.46875 21.23828125 C7.42234375 22.97658203 7.42234375 22.97658203 7.375 24.75 C7.31699219 26.51150391 7.31699219 26.51150391 7.2578125 28.30859375 C7.1636018 31.20557268 7.07798398 34.10254626 7 37 C6.01 36.67 5.02 36.34 4 36 C4.66 36 5.32 36 6 36 C7.34306952 22.05815705 7.34306952 22.05815705 3.77490234 9.12890625 C0.65347727 6.34893426 -2.99899023 5.00779582 -7 4 C-3.90279155 3.12159004 -2.09354597 3.00564594 1 4 C1 3.34 1 2.68 1 2 C0.34 1.67 -0.32 1.34 -1 1 C-0.67 0.67 -0.34 0.34 0 0 Z " fill="#D5B768" transform="translate(183,178)"/>
<path d="M0 0 C0.66 0.33 1.32 0.66 2 1 C0.85492228 5.75647668 0.85492228 5.75647668 -1 8 C-4.61445575 9.24213597 -8.2014332 9.6839902 -12 10 C-12 10.66 -12 11.32 -12 12 C-13.24420647 12.5345256 -14.49570936 13.05208611 -15.75 13.5625 C-16.44609375 13.85253906 -17.1421875 14.14257812 -17.859375 14.44140625 C-20.30012784 15.07831803 -21.6403655 14.80248831 -24 14 C-23.10539063 13.49210937 -22.21078125 12.98421875 -21.2890625 12.4609375 C-20.0676526 11.76572291 -18.84630261 11.07040306 -17.625 10.375 C-16.99174805 10.01543213 -16.35849609 9.65586426 -15.70605469 9.28540039 C-11.02580503 6.61713779 -6.4342128 3.82975485 -1.890625 0.93359375 C-0.95476562 0.47146484 -0.95476562 0.47146484 0 0 Z " fill="#BA912C" transform="translate(197,112)"/>
<path d="M0 0 C4.45936282 -0.3913152 6.97791276 0.78240738 10.8125 3 C11.78832031 3.556875 12.76414062 4.11375 13.76953125 4.6875 C14.50558594 5.120625 15.24164063 5.55375 16 6 C16 6.66 16 7.32 16 8 C16.928125 8.268125 17.85625 8.53625 18.8125 8.8125 C21.76240366 9.91148371 23.05615186 10.62418561 25 13 C23.68 13 22.36 13 21 13 C21 12.34 21 11.68 21 11 C19.68 11 18.36 11 17 11 C17 10.34 17 9.68 17 9 C16.01 9 15.02 9 14 9 C14 8.34 14 7.68 14 7 C12.68 7 11.36 7 10 7 C10 6.34 10 5.68 10 5 C8.02 5 6.04 5 4 5 C4 4.34 4 3.68 4 3 C0.99740483 2.66781808 0.99740483 2.66781808 -0.6875 4.5 C-1.120625 4.995 -1.55375 5.49 -2 6 C-1.67 6.66 -1.34 7.32 -1 8 C-2.65 8 -4.3 8 -6 8 C-6 7.34 -6 6.68 -6 6 C-6.66 5.67 -7.32 5.34 -8 5 C-3.375 2 -3.375 2 0 2 C0 1.34 0 0.68 0 0 Z " fill="#BFA054" transform="translate(248,62)"/>
<path d="M0 0 C3.63 0 7.26 0 11 0 C10.67 1.65 10.34 3.3 10 5 C11.32 5 12.64 5 14 5 C14 5.66 14 6.32 14 7 C14.85851562 7.19916016 14.85851562 7.19916016 15.734375 7.40234375 C17.97650875 7.99380317 20.08579619 8.73288854 22.25 9.5625 C22.95640625 9.83191406 23.6628125 10.10132812 24.390625 10.37890625 C24.92171875 10.58386719 25.4528125 10.78882812 26 11 C26 11.66 26 12.32 26 13 C27.98 13.66 29.96 14.32 32 15 C32 15.99 32 16.98 32 18 C27.09805563 16.74309119 23.59636694 14.4824351 19.5 11.65234375 C13.32760975 7.57277957 6.64858575 4.23444712 0 1 C0 0.67 0 0.34 0 0 Z " fill="#B79038" transform="translate(298,102)"/>
<path d="M0 0 C0 0.66 0 1.32 0 2 C0.8971875 2.2165625 0.8971875 2.2165625 1.8125 2.4375 C3.56150404 2.8872439 5.28677023 3.42892341 7 4 C7 4.66 7 5.32 7 6 C-0.29587804 7.36024845 -0.29587804 7.36024845 -3.6875 5.625 C-4.450625 5.08875 -5.21375 4.5525 -6 4 C-8.69254991 3.29329272 -8.69254991 3.29329272 -11 3 C-11 3.66 -11 4.32 -11 5 C-12.65 5.33 -14.3 5.66 -16 6 C-10.79845652 0.413157 -7.72296495 -1.66573754 0 0 Z " fill="#BD9631" transform="translate(255,83)"/>
<path d="M0 0 C-0.33 1.65 -0.66 3.3 -1 5 C-0.34 5 0.32 5 1 5 C2.625 7 2.625 7 4 9 C-2.31631828 8.59683075 -6.64993984 6.28767869 -12 3 C-11.01 2.67 -10.02 2.34 -9 2 C-9 1.34 -9 0.68 -9 0 C-5.67465243 -1.10844919 -3.37817425 -0.84454356 0 0 Z " fill="#B88D1F" transform="translate(165,374)"/>
<path d="M0 0 C1.65 0.33 3.3 0.66 5 1 C5 1.66 5 2.32 5 3 C6.65 3 8.3 3 10 3 C7.0911999 6.17011075 4.23340274 8.17851202 0.4375 10.1875 C-0.98755859 10.95126953 -0.98755859 10.95126953 -2.44140625 11.73046875 C-5 13 -5 13 -8 14 C-7.67 12.68 -7.34 11.36 -7 10 C-6.01 10.33 -5.02 10.66 -4 11 C-4.57584432 8.61435923 -5.22227595 6.33317216 -6 4 C-3.61435923 4.57584432 -1.33317216 5.22227595 1 6 C1.66 5.67 2.32 5.34 3 5 C3.33 4.01 3.66 3.02 4 2 C2.68 2 1.36 2 0 2 C0 1.34 0 0.68 0 0 Z " fill="#BD9537" transform="translate(201,94)"/>
<path d="M0 0 C2.84909243 -0.23742437 4.58887263 -0.21523892 7.14746094 1.12426758 C9 3 9 3 9.45410156 5.8190918 C9.4331543 6.93453369 9.41220703 8.04997559 9.390625 9.19921875 C9.37773437 10.40771484 9.36484375 11.61621094 9.3515625 12.86132812 C9.31804687 14.12396484 9.28453125 15.38660156 9.25 16.6875 C9.23195312 17.96173828 9.21390625 19.23597656 9.1953125 20.54882812 C9.14810441 23.69996841 9.08226384 26.8496114 9 30 C8.34 30 7.68 30 7 30 C6.67 21.42 6.34 12.84 6 4 C4.02 3.01 2.04 2.02 0 1 C0 0.67 0 0.34 0 0 Z " fill="#CDB573" transform="translate(222,208)"/>
<path d="M0 0 C1.98 0.66 3.96 1.32 6 2 C5.67 2.66 5.34 3.32 5 4 C4.34 4 3.68 4 3 4 C3 12.58 3 21.16 3 30 C3.99 30 4.98 30 6 30 C6 29.34 6 28.68 6 28 C11.2734375 24.77734375 11.2734375 24.77734375 13 24 C13.66 24.33 14.32 24.66 15 25 C14.34 25.99 13.68 26.98 13 28 C11.68 28 10.36 28 9 28 C8.67 28.99 8.34 29.98 8 31 C6.02 31.33 4.04 31.66 2 32 C1.16422307 28.38131621 0.89267314 25.07723245 0.9375 21.3671875 C0.94523437 20.31402344 0.95296875 19.26085937 0.9609375 18.17578125 C0.97382813 17.08652344 0.98671875 15.99726563 1 14.875 C1.02549026 12.70577889 1.0465296 10.53649959 1.0625 8.3671875 C1.07410156 7.40925293 1.08570313 6.45131836 1.09765625 5.46435547 C1.10911573 2.86332169 1.10911573 2.86332169 0 0 Z " fill="#BA9949" transform="translate(272,325)"/>
<path d="M0 0 C-0.33 1.32 -0.66 2.64 -1 4 C-1.99 4 -2.98 4 -4 4 C-4 4.99 -4 5.98 -4 7 C-4.66 7 -5.32 7 -6 7 C-5.67 8.32 -5.34 9.64 -5 11 C-7.38564077 10.42415568 -9.66682784 9.77772405 -12 9 C-13.33106622 8.65772583 -14.66400079 8.32248257 -16 8 C-13.9007236 6.6583797 -11.7962168 5.32663161 -9.6875 4 C-9.09259766 3.6184375 -8.49769531 3.236875 -7.88476562 2.84375 C-3.33984375 0 -3.33984375 0 0 0 Z " fill="#B88C25" transform="translate(229,95)"/>
<path d="M0 0 C1.65 0 3.3 0 5 0 C5.33 0.99 5.66 1.98 6 3 C5.67 3.66 5.34 4.32 5 5 C5.66 5.66 6.32 6.32 7 7 C6.34 7.66 5.68 8.32 5 9 C5 8.34 5 7.68 5 7 C0.545 7.495 0.545 7.495 -4 8 C-4.66 6.68 -5.32 5.36 -6 4 C-5.34 3.34 -4.68 2.68 -4 2 C-3.01 2 -2.02 2 -1 2 C-0.67 1.34 -0.34 0.68 0 0 Z " fill="#B68504" transform="translate(281,82)"/>
<path d="M0 0 C2.31 0 4.62 0 7 0 C5.02 0.99 5.02 0.99 3 2 C3 10.25 3 18.5 3 27 C2.34 27 1.68 27 1 27 C0.67 18.09 0.34 9.18 0 0 Z " fill="#CBA964" transform="translate(312,187)"/>
<path d="M0 0 C0.33 0 0.66 0 1 0 C1.33 7.59 1.66 15.18 2 23 C6.71795054 21.27000067 6.71795054 21.27000067 9.6875 19.375 C12 18 12 18 14 18 C14 18.66 14 19.32 14 20 C13.01 20 12.02 20 11 20 C11 21.65 11 23.3 11 25 C6.05 25.495 6.05 25.495 1 26 C-0.30475618 23.39048764 -0.11301572 21.47298715 -0.09765625 18.5546875 C-0.09443359 17.47832031 -0.09121094 16.40195312 -0.08789062 15.29296875 C-0.07951172 14.16503906 -0.07113281 13.03710938 -0.0625 11.875 C-0.05798828 10.73933594 -0.05347656 9.60367187 -0.04882812 8.43359375 C-0.03701615 5.62234362 -0.02054507 2.8111977 0 0 Z " fill="#B5903E" transform="translate(313,308)"/>
<path d="M0 0 C0.33 0.66 0.66 1.32 1 2 C0.34 2 -0.32 2 -1 2 C-1 3.32 -1 4.64 -1 6 C-2.65 6 -4.3 6 -6 6 C-6 5.34 -6 4.68 -6 4 C-8.97 3.505 -8.97 3.505 -12 3 C-12 2.34 -12 1.68 -12 1 C-11.34 1 -10.68 1 -10 1 C-10 0.34 -10 -0.32 -10 -1 C-5.97215907 -2.15081169 -3.71901707 -1.96281457 0 0 Z " fill="#B68603" transform="translate(212,91)"/>
<path d="M0 0 C0.66 0 1.32 0 2 0 C2 9.24 2 18.48 2 28 C1.01 28.33 0.02 28.66 -1 29 C-0.67 19.43 -0.34 9.86 0 0 Z " fill="#D2BC74" transform="translate(189,306)"/>
<path d="M0 0 C1.32 0 2.64 0 4 0 C3.67 1.32 3.34 2.64 3 4 C3.66 4 4.32 4 5 4 C5 2.68 5 1.36 5 0 C6.65 0.33 8.3 0.66 10 1 C7.00681438 4.33855319 4.14243338 6.27398609 0 8 C-1.32 8 -2.64 8 -4 8 C-4 6.35 -4 4.7 -4 3 C-3.34 2.67 -2.68 2.34 -2 2 C-1.34 2.33 -0.68 2.66 0 3 C0 2.01 0 1.02 0 0 Z " fill="#B9840E" transform="translate(285,258)"/>
<path d="M0 0 C0.33 0 0.66 0 1 0 C1 9.57 1 19.14 1 29 C0.34 29 -0.32 29 -1 29 C-1.66 30.32 -2.32 31.64 -3 33 C-5.64 33 -8.28 33 -11 33 C-8.37801226 30.84622436 -6.35595828 29.59927826 -3 29 C-3 28.34 -3 27.68 -3 27 C-2.34 26.67 -1.68 26.34 -1 26 C-0.67 17.42 -0.34 8.84 0 0 Z " fill="#C7B062" transform="translate(337,235)"/>
<path d="M0 0 C1.32 0 2.64 0 4 0 C5 3 5 3 4.0625 5.1875 C3.711875 5.785625 3.36125 6.38375 3 7 C2.34 7 1.68 7 1 7 C0.67 7.66 0.34 8.32 0 9 C-2.32156597 9.40729228 -4.6568787 9.74438677 -7 10 C-7.33 8.68 -7.66 7.36 -8 6 C-6.35 6 -4.7 6 -3 6 C-3 5.34 -3 4.68 -3 4 C-2.34 4 -1.68 4 -1 4 C-0.67 2.68 -0.34 1.36 0 0 Z " fill="#B68603" transform="translate(224,77)"/>
<path d="M0 0 C0.66 0 1.32 0 2 0 C2 8.58 2 17.16 2 26 C-1.32235433 21.57019423 -1.36556801 20.54301469 -1.25 15.25 C-1.22421875 14.01507813 -1.1984375 12.78015625 -1.171875 11.5078125 C-0.98102687 7.61277573 -0.6158118 3.84882374 0 0 Z " fill="#C29C4B" transform="translate(273,214)"/>
<path d="M0 0 C4.13304706 1.45872249 7.36462725 3.57641817 11 6 C13.63498572 7.40087848 16.3068561 8.71494656 19 10 C15.23375329 11.25541557 13.62811066 10.37061958 10 9 C10 8.34 10 7.68 10 7 C5.545 7.495 5.545 7.495 1 8 C1 7.34 1 6.68 1 6 C1.66 6 2.32 6 3 6 C2.01 4.02 1.02 2.04 0 0 Z " fill="#BC9136" transform="translate(331,108)"/>
<path d="M0 0 C0.33 0 0.66 0 1 0 C1.33 8.58 1.66 17.16 2 26 C4.64 27.32 7.28 28.64 10 30 C8.02 30.99 8.02 30.99 6 32 C5.67 31.01 5.34 30.02 5 29 C4.195625 29.020625 3.39125 29.04125 2.5625 29.0625 C0 29 0 29 -1 28 C-1.01679563 25.92545653 -0.96256686 23.85026768 -0.87890625 21.77734375 C-0.83056641 20.51728516 -0.78222656 19.25722656 -0.73242188 17.95898438 C-0.67589183 16.61848492 -0.61924973 15.27799018 -0.5625 13.9375 C-0.50929396 12.59311754 -0.45655347 11.24871657 -0.40429688 9.90429688 C-0.27412455 6.60265343 -0.13914389 3.30127557 0 0 Z " fill="#B59345" transform="translate(206,317)"/>
<path d="M0 0 C0.721875 0.144375 1.44375 0.28875 2.1875 0.4375 C3.5796875 0.7159375 3.5796875 0.7159375 5 1 C5.88300781 1.17660156 6.76601562 1.35320312 7.67578125 1.53515625 C8.44277344 1.68855469 9.20976562 1.84195313 10 2 C10.12276617 11.73944972 9.83779436 21.29056184 9 31 C8.67 31 8.34 31 8 31 C8 22.09 8 13.18 8 4 C5.525 3.01 5.525 3.01 3 2 C2.01 1.34 1.02 0.68 0 0 Z " fill="#DAC880" transform="translate(181,243)"/>
<path d="M0 0 C0.33 0 0.66 0 1 0 C1 8.58 1 17.16 1 26 C1.99 26.33 2.98 26.66 4 27 C3.01 27.33 2.02 27.66 1 28 C0.67 28.33 0.34 28.66 0 29 C0 29.66 0 30.32 0 31 C-1.32 30.67 -2.64 30.34 -4 30 C-4 29.01 -4 28.02 -4 27 C-3.34 26.67 -2.68 26.34 -2 26 C-1.52891722 23.37960236 -1.52891722 23.37960236 -1.3671875 20.21484375 C-1.28339844 19.04501953 -1.19960937 17.87519531 -1.11328125 16.66992188 C-1.03464844 15.43822266 -0.95601562 14.20652344 -0.875 12.9375 C-0.78863281 11.70193359 -0.70226562 10.46636719 -0.61328125 9.19335938 C-0.40034105 6.12938644 -0.19632138 3.06507544 0 0 Z " fill="#AF882D" transform="translate(166,177)"/>
<path d="M0 0 C1.65 0 3.3 0 5 0 C5 0.66 5 1.32 5 2 C5.928125 2.28875 6.85625 2.5775 7.8125 2.875 C11 4 11 4 14 6 C14.34057617 8.79736328 14.34057617 8.79736328 14.29296875 12.3203125 C14.28330078 13.57714844 14.27363281 14.83398438 14.26367188 16.12890625 C14.23853516 17.44761719 14.21339844 18.76632812 14.1875 20.125 C14.17245483 21.46482903 14.15876613 22.80467404 14.14648438 24.14453125 C14.11102872 27.43008842 14.06160849 30.71484582 14 34 C13.67 34 13.34 34 13 34 C13 25.09 13 16.18 13 7 C11.68 6.67 10.36 6.34 9 6 C7.39409285 5.18907006 5.81058994 4.33254423 4.25 3.4375 C3.45078125 2.98246094 2.6515625 2.52742188 1.828125 2.05859375 C1.22484375 1.70925781 0.6215625 1.35992187 0 1 C0 0.67 0 0.34 0 0 Z " fill="#DBCC8F" transform="translate(216,263)"/>
<path d="M0 0 C0.66 0.33 1.32 0.66 2 1 C1.67 1.33 1.34 1.66 1 2 C5.455 2.99 5.455 2.99 10 4 C10 5.32 10 6.64 10 8 C6.37 8 2.74 8 -1 8 C-1 4.88742431 -0.82638376 2.89234315 0 0 Z " fill="#B68600" transform="translate(303,95)"/>
<path d="M0 0 C1.32 0.33 2.64 0.66 4 1 C5.2982126 6.76081841 6.25706972 12.08739655 6 18 C3.78631706 15.78631706 2.13447079 14.06983375 1.734375 10.88671875 C1.74833014 8.92253213 1.86713644 6.9597375 2 5 C1.34 5 0.68 5 0 5 C0 3.35 0 1.7 0 0 Z " fill="#BA8410" transform="translate(340,251)"/>
<path d="M0 0 C0.66 0.33 1.32 0.66 2 1 C1.67 1.66 1.34 2.32 1 3 C-0.32 3 -1.64 3 -3 3 C-3 3.66 -3 4.32 -3 5 C-3.66 5 -4.32 5 -5 5 C-5 6.32 -5 7.64 -5 9 C-8.75 10.125 -8.75 10.125 -11 9 C-10.67 9.99 -10.34 10.98 -10 12 C-11.32 11.67 -12.64 11.34 -14 11 C-13.90234375 9.23828125 -13.90234375 9.23828125 -13 7 C-10.8476309 5.53287494 -8.86607784 4.35283938 -6.5625 3.1875 C-5.96373047 2.86330078 -5.36496094 2.53910156 -4.74804688 2.20507812 C-3.20169806 1.39640523 -1.60286 0.68991763 0 0 Z " fill="#BE9238" transform="translate(159,114)"/>
<path d="M0 0 C2.64 0 5.28 0 8 0 C8 0.66 8 1.32 8 2 C8.639375 2.103125 9.27875 2.20625 9.9375 2.3125 C10.618125 2.539375 11.29875 2.76625 12 3 C12.33 3.99 12.66 4.98 13 6 C13.99 6.33 14.98 6.66 16 7 C16 7.66 16 8.32 16 9 C16.639375 9.12375 17.27875 9.2475 17.9375 9.375 C18.618125 9.58125 19.29875 9.7875 20 10 C20.33 10.66 20.66 11.32 21 12 C19.02 11.34 17.04 10.68 15 10 C15 9.34 15 8.68 15 8 C14.45859375 7.89816406 13.9171875 7.79632813 13.359375 7.69140625 C10.39403419 6.82242393 7.94475054 5.44527709 5.25 3.9375 C4.26515625 3.38964844 3.2803125 2.84179688 2.265625 2.27734375 C1.51796875 1.85582031 0.7703125 1.43429687 0 1 C0 0.67 0 0.34 0 0 Z " fill="#BA9637" transform="translate(222,416)"/>
<path d="M0 0 C0.66 0 1.32 0 2 0 C2 0.66 2 1.32 2 2 C2.66 2 3.32 2 4 2 C4.66 3.65 5.32 5.3 6 7 C2.89656201 5.79310745 -0.01193893 4.49403054 -3 3 C-3 11.58 -3 20.16 -3 29 C-3.33 29 -3.66 29 -4 29 C-4 20.09 -4 11.18 -4 2 C-2.68 2 -1.36 2 0 2 C0 1.34 0 0.68 0 0 Z " fill="#B1924D" transform="translate(210,256)"/>
<path d="M0 0 C1.65 0 3.3 0 5 0 C5.33 0.99 5.66 1.98 6 3 C8.31 3.33 10.62 3.66 13 4 C13 4.66 13 5.32 13 6 C14.32 5.67 15.64 5.34 17 5 C17.66 6.98 18.32 8.96 19 11 C15.2089881 9.55049545 11.6125362 7.84827434 8 6 C8 5.34 8 4.68 8 4 C7.4225 3.896875 6.845 3.79375 6.25 3.6875 C3.67950842 2.90207202 2.06342716 1.69495803 0 0 Z " fill="#BB9B3D" transform="translate(167,293)"/>
<path d="M0 0 C0.33 0 0.66 0 1 0 C1 8.58 1 17.16 1 26 C-1.31 26 -3.62 26 -6 26 C-6 26.66 -6 27.32 -6 28 C-6.66 28 -7.32 28 -8 28 C-8.33 25.69 -8.66 23.38 -9 21 C-5.89656201 22.20689255 -2.98806107 23.50596946 0 25 C0 16.75 0 8.5 0 0 Z " fill="#AF8630" transform="translate(190,190)"/>
<path d="M0 0 C0.33 0 0.66 0 1 0 C1.10841951 1.91541138 1.18578079 3.83259773 1.25 5.75 C1.29640625 6.81734375 1.3428125 7.8846875 1.390625 8.984375 C1 12 1 12 -0.890625 14.390625 C-3 16 -3 16 -5 16 C-4.66666667 14.66666667 -4.33333333 13.33333333 -4 12 C-3.835 11.278125 -3.67 10.55625 -3.5 9.8125 C-3 8 -3 8 -2 7 C-2.7425 6.319375 -2.7425 6.319375 -3.5 5.625 C-5 4 -5 4 -5 2 C-3.68 2 -2.36 2 -1 2 C-0.67 1.34 -0.34 0.68 0 0 Z " fill="#B98418" transform="translate(165,178)"/>
<path d="M0 0 C5.31027254 1.46032495 9.46330032 3.98320986 14 7 C13.34 7.66 12.68 8.32 12 9 C12 8.34 12 7.68 12 7 C11.39671875 6.93941406 10.7934375 6.87882812 10.171875 6.81640625 C9.37265625 6.73261719 8.5734375 6.64882812 7.75 6.5625 C6.56664062 6.44068359 6.56664062 6.44068359 5.359375 6.31640625 C3.15271556 6.02048007 1.11251991 5.70573121 -1 5 C-1.33 4.34 -1.66 3.68 -2 3 C-1.34 3 -0.68 3 0 3 C0 2.01 0 1.02 0 0 Z " fill="#BB912C" transform="translate(292,106)"/>
<path d="M0 0 C0.99 0.33 1.98 0.66 3 1 C2.625 3.375 2.625 3.375 1 6 C-2.27825654 7.08008783 -5.58056494 7.57730231 -9 8 C-9.33 7.01 -9.66 6.02 -10 5 C-8.906875 4.731875 -7.81375 4.46375 -6.6875 4.1875 C-3.38307337 3.12336261 -2.05039578 2.65345336 0 0 Z " fill="#B98513" transform="translate(202,115)"/>
<path d="M0 0 C0.33 0.66 0.66 1.32 1 2 C0.67 2.66 0.34 3.32 0 4 C-0.66 4 -1.32 4 -2 4 C-2 4.66 -2 5.32 -2 6 C-3.65 6 -5.3 6 -7 6 C-7 6.66 -7 7.32 -7 8 C-7.99 8.33 -8.98 8.66 -10 9 C-10.66 9.66 -11.32 10.32 -12 11 C-13.32 10.34 -14.64 9.68 -16 9 C-14.08424874 7.87344187 -12.16736281 6.74881313 -10.25 5.625 C-9.18265625 4.99851562 -8.1153125 4.37203125 -7.015625 3.7265625 C-4.70261322 2.40227337 -2.40048583 1.15363154 0 0 Z " fill="#BA933A" transform="translate(223,77)"/>
<path d="M0 0 C2.64 0 5.28 0 8 0 C8 8.91 8 17.82 8 27 C7.67 27 7.34 27 7 27 C6.67 18.75 6.34 10.5 6 2 C4.02 2.66 2.04 3.32 0 4 C-0.33 3.01 -0.66 2.02 -1 1 C-0.67 0.67 -0.34 0.34 0 0 Z " fill="#B28B31" transform="translate(331,176)"/>
<path d="M0 0 C0.99 0.33 1.98 0.66 3 1 C-0.84516395 4.61212371 -3.67587791 6 -9 6 C-11.9375 4.0625 -11.9375 4.0625 -14 2 C-12.58344207 1.9727585 -11.16672955 1.95349533 -9.75 1.9375 C-8.56664062 1.92009766 -8.56664062 1.92009766 -7.359375 1.90234375 C-5.09308998 1.99614694 -3.1711105 2.36758937 -1 3 C-0.67 2.01 -0.34 1.02 0 0 Z " fill="#C19D4F" transform="translate(257,426)"/>
<path d="M0 0 C1.5625 1.4375 1.5625 1.4375 3 3 C3.99 3.33 4.98 3.66 6 4 C6 4.66 6 5.32 6 6 C2.60104332 7.13298556 1.73016562 6.85659602 -1.5625 5.75 C-2.34753906 5.49734375 -3.13257813 5.2446875 -3.94140625 4.984375 C-6 4 -6 4 -8 1 C-5.10765685 0.17361624 -3.11257569 0 0 0 Z " fill="#BC8E21" transform="translate(178,176)"/>
<path d="M0 0 C1.98 0.66 3.96 1.32 6 2 C6.66 1.34 7.32 0.68 8 0 C8.99 0.33 9.98 0.66 11 1 C10.8125 2.875 10.8125 2.875 10 5 C7.625 6.3125 7.625 6.3125 5 7 C4.01 6.67 3.02 6.34 2 6 C0.8125 2.9375 0.8125 2.9375 0 0 Z " fill="#B88917" transform="translate(338,372)"/>
<path d="M0 0 C0.66 0.33 1.32 0.66 2 1 C1.67 1.99 1.34 2.98 1 4 C-1.0625 4.6875 -1.0625 4.6875 -3 5 C-3.33 6.98 -3.66 8.96 -4 11 C-5.65 10.67 -7.3 10.34 -9 10 C-8.37791128 6.95867738 -7.84577588 4.6908868 -5.37890625 2.67578125 C-3.5 1.5625 -3.5 1.5625 0 0 Z " fill="#BA860E" transform="translate(324,268)"/>
<path d="M0 0 C0.66 0 1.32 0 2 0 C2.24875561 2.26877104 2.47339246 4.54019735 2.6875 6.8125 C2.81511719 8.07707031 2.94273437 9.34164063 3.07421875 10.64453125 C3 14 3 14 1.64453125 15.94921875 C0 17 0 17 -2 17 C-2 16.34 -2 15.68 -2 15 C-1.34 15 -0.68 15 0 15 C0 10.05 0 5.1 0 0 Z " fill="#BC830E" transform="translate(162,305)"/>
<path d="M0 0 C5.08218027 1.39759957 9.96671562 3.55021107 14 7 C14 7.99 14 8.98 14 10 C13.01 10 12.02 10 11 10 C10.67 9.34 10.34 8.68 10 8 C8.02111039 7.27306096 6.02045442 6.60183749 4 6 C4 5.01 4 4.02 4 3 C3.01 3 2.02 3 1 3 C0.67 2.01 0.34 1.02 0 0 Z " fill="#BC9742" transform="translate(216,290)"/>
<path d="M0 0 C0.99 0 1.98 0 3 0 C2.06666667 4.8 2.06666667 4.8 1.375 6.875 C0.81922598 10.02438609 1.45913496 12.87500199 2 16 C1.34 16 0.68 16 0 16 C-2.03435531 12.27034861 -3 10.33094958 -3 6 C-2.34 5.67 -1.68 5.34 -1 5 C-0.34444881 2.47266765 -0.34444881 2.47266765 0 0 Z " fill="#BB840F" transform="translate(343,224)"/>
<path d="M0 0 C4.50802601 1.25805377 7.4912812 2.90407165 11 6 C10.01 6 9.02 6 8 6 C8.33 7.65 8.66 9.3 9 11 C7.35 10.67 5.7 10.34 4 10 C4.185625 9.401875 4.37125 8.80375 4.5625 8.1875 C5.22093687 5.83591238 5.22093687 5.83591238 4 3 C1.98491642 2.26676204 1.98491642 2.26676204 0 2 C0 1.34 0 0.68 0 0 Z " fill="#C2963E" transform="translate(306,114)"/>
<path d="M0 0 C1.06775224 1.96466413 2.06553465 3.96855359 3 6 C2.67 6.66 2.34 7.32 2 8 C0.35 7.67 -1.3 7.34 -3 7 C-3 6.34 -3 5.68 -3 5 C-3.66 4.67 -4.32 4.34 -5 4 C-5 3.01 -5 2.02 -5 1 C-3 0 -3 0 0 0 Z " fill="#B88602" transform="translate(195,97)"/>
<path d="M0 0 C5.31027254 1.46032495 9.46330032 3.98320986 14 7 C9.84228506 8.31538327 7.1120703 7.34433068 3 6 C3 5.01 3 4.02 3 3 C2.01 2.67 1.02 2.34 0 2 C0 1.34 0 0.68 0 0 Z " fill="#BF9C3E" transform="translate(167,320)"/>
<path d="M0 0 C3.63 0 7.26 0 11 0 C10.67 1.65 10.34 3.3 10 5 C11.32 5 12.64 5 14 5 C14.66 6.32 15.32 7.64 16 9 C12.20950293 7.57250019 8.72877544 5.83763458 5.1875 3.875 C4.21167969 3.33617188 3.23585938 2.79734375 2.23046875 2.2421875 C1.49441406 1.83226563 0.75835937 1.42234375 0 1 C0 0.67 0 0.34 0 0 Z " fill="#C19B46" transform="translate(298,102)"/>
<path d="M0 0 C5.76878411 2.83194857 11.40467128 5.83967544 17 9 C15.02 9.99 15.02 9.99 13 11 C13 10.34 13 9.68 13 9 C11.35 8.67 9.7 8.34 8 8 C7.67 7.01 7.34 6.02 7 5 C5.35 5 3.7 5 2 5 C1.34 3.35 0.68 1.7 0 0 Z " fill="#C09E51" transform="translate(314,98)"/>
<path d="M0 0 C-2.40689803 2.72675159 -4.92471023 4.11966596 -8.1875 5.6875 C-9.08855469 6.12449219 -9.98960937 6.56148438 -10.91796875 7.01171875 C-11.94857422 7.50091797 -11.94857422 7.50091797 -13 8 C-13.33 7.34 -13.66 6.68 -14 6 C-13.34 6 -12.68 6 -12 6 C-11.773125 5.38125 -11.54625 4.7625 -11.3125 4.125 C-8.71848972 -0.07482617 -4.60793369 -0.2633105 0 0 Z " fill="#BD983F" transform="translate(343,379)"/>
<path d="M0 0 C0.33 0 0.66 0 1 0 C1.49054666 3.12723497 1.69572611 5.89519245 1 9 C-1.34888006 11.34888006 -3.92603256 12.77164755 -7 14 C-7.66 14 -8.32 14 -9 14 C-9 13.01 -9 12.02 -9 11 C-8.01 11 -7.02 11 -6 11 C-6 10.34 -6 9.68 -6 9 C-4.35 8.34 -2.7 7.68 -1 7 C-0.67 4.69 -0.34 2.38 0 0 Z " fill="#BB9647" transform="translate(357,362)"/>
<path d="M0 0 C1.37478516 0.01740234 1.37478516 0.01740234 2.77734375 0.03515625 C3.69644531 0.04417969 4.61554688 0.05320312 5.5625 0.0625 C6.27277344 0.07410156 6.98304688 0.08570312 7.71484375 0.09765625 C4.08984375 3.09765625 4.08984375 3.09765625 0.71484375 3.09765625 C0.71484375 3.75765625 0.71484375 4.41765625 0.71484375 5.09765625 C-3.66977163 8.09765625 -3.66977163 8.09765625 -6.28515625 8.09765625 C-6.28515625 7.10765625 -6.28515625 6.11765625 -6.28515625 5.09765625 C-4.63515625 4.43765625 -2.98515625 3.77765625 -1.28515625 3.09765625 C-1.94515625 2.43765625 -2.60515625 1.77765625 -3.28515625 1.09765625 C-2.28515625 0.09765625 -2.28515625 0.09765625 0 0 Z " fill="#BE9945" transform="translate(185.28515625,107.90234375)"/>
<path d="M0 0 C2.31 0 4.62 0 7 0 C7.33 0.66 7.66 1.32 8 2 C8.99 2.33 9.98 2.66 11 3 C11 3.66 11 4.32 11 5 C11.99 5 12.98 5 14 5 C14 5.99 14 6.98 14 8 C9.02790438 6.23570801 4.56561939 3.6060834 0 1 C0 0.67 0 0.34 0 0 Z " fill="#BD9947" transform="translate(278,90)"/>
<path d="M0 0 C2.64 0 5.28 0 8 0 C7.67 0.66 7.34 1.32 7 2 C6.84777027 3.66565749 6.75082785 5.33656496 6.68359375 7.0078125 C6.64169922 7.99394531 6.59980469 8.98007813 6.55664062 9.99609375 C6.51732422 11.02863281 6.47800781 12.06117188 6.4375 13.125 C6.39431641 14.16527344 6.35113281 15.20554688 6.30664062 16.27734375 C6.2003712 18.85142528 6.09833417 21.42560508 6 24 C5.67 24 5.34 24 5 24 C4.67 17.07 4.34 10.14 4 3 C2.68 2.34 1.36 1.68 0 1 C0 0.67 0 0.34 0 0 Z " fill="#B4861E" transform="translate(160,234)"/>
<path d="M0 0 C1.65 0 3.3 0 5 0 C3.77974937 3.6607519 2.873509 3.92339441 -0.4375 5.6875 C-1.64212891 6.34298828 -1.64212891 6.34298828 -2.87109375 7.01171875 C-5 8 -5 8 -7 8 C-6.67 6.68 -6.34 5.36 -6 4 C-4.35 3.67 -2.7 3.34 -1 3 C-0.67 2.01 -0.34 1.02 0 0 Z " fill="#BC9741" transform="translate(279,412)"/>
<path d="M0 0 C4.95 0.99 4.95 0.99 10 2 C10 2.99 10 3.98 10 5 C11.32 5 12.64 5 14 5 C14 5.99 14 6.98 14 8 C8.76481294 6.56032356 4.36973991 4.18303389 0 1 C0 0.67 0 0.34 0 0 Z " fill="#C3A757" transform="translate(187,352)"/>
<path d="M0 0 C-1.5613598 3.1227196 -4.06617192 5.19923656 -7 7 C-10.375 7.3125 -10.375 7.3125 -13 7 C-9.7518905 3.1786947 -5.05744645 0 0 0 Z " fill="#BE9A4F" transform="translate(298,285)"/>
<path d="M0 0 C0 0.66 0 1.32 0 2 C-1.99550146 3.99550146 -3.47924835 4.81376393 -6 6 C-6.66 6.391875 -7.32 6.78375 -8 7.1875 C-10.45418319 8.18451192 -11.51774052 7.72916372 -14 7 C-12.04480616 5.82807953 -10.0857461 4.6626071 -8.125 3.5 C-7.03445312 2.8503125 -5.94390625 2.200625 -4.8203125 1.53125 C-2 0 -2 0 0 0 Z " fill="#C0A050" transform="translate(187,119)"/>
<path d="M0 0 C1.98 0.99 3.96 1.98 6 3 C5.67 4.65 5.34 6.3 5 8 C3.35 8 1.7 8 0 8 C0 5.36 0 2.72 0 0 Z " fill="#BA8F24" transform="translate(182,328)"/>
<path d="M0 0 C0.33 0.66 0.66 1.32 1 2 C3.52733235 2.65555119 3.52733235 2.65555119 6 3 C6.33 3.99 6.66 4.98 7 6 C4.03 5.67 1.06 5.34 -2 5 C-2.33 5.66 -2.66 6.32 -3 7 C-2.25 2.25 -2.25 2.25 0 0 Z " fill="#B88513" transform="translate(295,308)"/>
<path d="M0 0 C2.97 0.33 5.94 0.66 9 1 C4.32733754 4.58237455 1.97976363 5.11073636 -4 5 C-3.67 4.01 -3.34 3.02 -3 2 C-2.01 2.33 -1.02 2.66 0 3 C0 2.01 0 1.02 0 0 Z " fill="#BE9837" transform="translate(318,240)"/>
<path d="M0 0 C0 0.66 0 1.32 0 2 C-0.66 2 -1.32 2 -2 2 C-1.67 2.99 -1.34 3.98 -1 5 C-5.43076923 7.09230769 -5.43076923 7.09230769 -8.3125 6.625 C-8.869375 6.41875 -9.42625 6.2125 -10 6 C-10 5.34 -10 4.68 -10 4 C-8.71086513 3.32845067 -7.41859796 2.66291141 -6.125 2 C-5.40570313 1.62875 -4.68640625 1.2575 -3.9453125 0.875 C-2 0 -2 0 0 0 Z " fill="#BD9334" transform="translate(239,89)"/>
<path d="M0 0 C-0.33 1.32 -0.66 2.64 -1 4 C-1.99 4 -2.98 4 -4 4 C-4 4.99 -4 5.98 -4 7 C-6.475 6.01 -6.475 6.01 -9 5 C-4.16129032 0 -4.16129032 0 0 0 Z " fill="#C09737" transform="translate(229,95)"/>
<path d="M0 0 C2.46800047 1.15173355 4.04783565 2.04783565 6 4 C4.6875 6.5 4.6875 6.5 3 9 C2.01 9 1.02 9 0 9 C0 6 0 3 0 0 Z " fill="#B8891D" transform="translate(224,353)"/>
<path d="M0 0 C1.32 0 2.64 0 4 0 C4 0.99 4 1.98 4 3 C5.65 3 7.3 3 9 3 C9 3.66 9 4.32 9 5 C6.69 4.67 4.38 4.34 2 4 C1.67 4.66 1.34 5.32 1 6 C0.01 6 -0.98 6 -2 6 C-2 5.01 -2 4.02 -2 3 C-1.34 3 -0.68 3 0 3 C0 2.01 0 1.02 0 0 Z " fill="#B7891C" transform="translate(182,348)"/>
<path d="M0 0 C0 0.99 0 1.98 0 3 C0.66 3.33 1.32 3.66 2 4 C2 4.66 2 5.32 2 6 C0.68 5.67 -0.64 5.34 -2 5 C-2 4.34 -2 3.68 -2 3 C-5.11785113 3.64644661 -5.11785113 3.64644661 -6 6 C-7.65 6 -9.3 6 -11 6 C-3.8 0 -3.8 0 0 0 Z " fill="#C19C47" transform="translate(298,343)"/>
<path d="M0 0 C1.98 0.66 3.96 1.32 6 2 C5.67 2.66 5.34 3.32 5 4 C4.34 4 3.68 4 3 4 C3 9.94 3 15.88 3 22 C2.67 22 2.34 22 2 22 C1.97494385 21.44014404 1.9498877 20.88028809 1.92407227 20.3034668 C1.80796255 17.76458695 1.6853042 15.22606447 1.5625 12.6875 C1.52318359 11.80642578 1.48386719 10.92535156 1.44335938 10.01757812 C1.40146484 9.17001953 1.35957031 8.32246094 1.31640625 7.44921875 C1.26141968 6.27879028 1.26141968 6.27879028 1.20532227 5.0847168 C1.05874737 2.80670899 1.05874737 2.80670899 0 0 Z " fill="#CDAB62" transform="translate(272,325)"/>
<path d="M0 0 C0.66 0.33 1.32 0.66 2 1 C1.67 1.99 1.34 2.98 1 4 C2.98 4.66 4.96 5.32 7 6 C7 6.33 7 6.66 7 7 C2.55129785 7.39253254 -0.14243493 6.15305957 -4 4 C-2.68 2.68 -1.36 1.36 0 0 Z " fill="#BA840F" transform="translate(292,233)"/>
<path d="M0 0 C0.33 1.98 0.66 3.96 1 6 C-2.59391114 4.66511872 -5.75490696 3.03977277 -9 1 C-5.53842554 -0.73078723 -3.65921187 -1.13561748 0 0 Z " fill="#C09C42" transform="translate(221,202)"/>
<path d="M0 0 C2.3129482 2.3129482 2.49580975 3.47904875 3.125 6.625 C3.29257812 7.44226563 3.46015625 8.25953125 3.6328125 9.1015625 C3.81457031 10.04128906 3.81457031 10.04128906 4 11 C3.01 11 2.02 11 1 11 C0.67 8.69 0.34 6.38 0 4 C-0.99 3.67 -1.98 3.34 -3 3 C-2.01 2.01 -1.02 1.02 0 0 Z " fill="#BC830F" transform="translate(346,197)"/>
<path d="M0 0 C2.64 0 5.28 0 8 0 C-1.1 7 -1.1 7 -4 7 C-3.67 5.68 -3.34 4.36 -3 3 C-2.01 3 -1.02 3 0 3 C0 2.01 0 1.02 0 0 Z " fill="#C2A14D" transform="translate(323,180)"/>
<path d="M0 0 C0.33 0.99 0.66 1.98 1 3 C0.01 4.485 0.01 4.485 -1 6 C-4.19834873 6.50500243 -5.5786377 6.27331609 -8.3125 4.5 C-8.869375 4.005 -9.42625 3.51 -10 3 C-6.52176885 1.84058962 -4.54104422 2.29179116 -1 3 C-0.67 2.01 -0.34 1.02 0 0 Z " fill="#BA8510" transform="translate(291,400)"/>
<path d="M0 0 C0.66 0.33 1.32 0.66 2 1 C0.68 2.32 -0.64 3.64 -2 5 C-1.67 5.66 -1.34 6.32 -1 7 C-2.65 7 -4.3 7 -6 7 C-6 6.34 -6 5.68 -6 5 C-6.66 4.67 -7.32 4.34 -8 4 C-6.71349294 3.30289269 -5.42059335 2.61757124 -4.125 1.9375 C-3.40570313 1.55464844 -2.68640625 1.17179687 -1.9453125 0.77734375 C-1.30335938 0.52082031 -0.66140625 0.26429687 0 0 Z " fill="#BC9338" transform="translate(248,63)"/>
<path d="M0 0 C4.1666604 0.47348414 6.92884715 1.04696841 10 4 C10 4.66 10 5.32 10 6 C10.99 6 11.98 6 13 6 C12.67 6.66 12.34 7.32 12 8 C10.18387512 7.04855402 8.37218919 6.08863067 6.5625 5.125 C5.55316406 4.59132813 4.54382813 4.05765625 3.50390625 3.5078125 C1 2 1 2 0 0 Z " fill="#BE9F5B" transform="translate(207,316)"/>
<path d="M0 0 C1.65 0.33 3.3 0.66 5 1 C1.7129243 4.81300782 -1.39727838 6.22972246 -6 8 C-6 7.01 -6 6.02 -6 5 C-4.02 4.67 -2.04 4.34 0 4 C0 2.68 0 1.36 0 0 Z " fill="#C0A64F" transform="translate(290,258)"/>
<path d="M0 0 C0 0.66 0 1.32 0 2 C0.66 2 1.32 2 2 2 C2.33 2.99 2.66 3.98 3 5 C1.35 5.33 -0.3 5.66 -2 6 C-2 5.01 -2 4.02 -2 3 C-3.65 3.33 -5.3 3.66 -7 4 C-3.17391304 0 -3.17391304 0 0 0 Z " fill="#BB8F2D" transform="translate(298,226)"/>
<path d="M0 0 C1.98567708 0.09765625 3.97135417 0.1953125 5.95703125 0.29296875 C6.28703125 1.28296875 6.61703125 2.27296875 6.95703125 3.29296875 C2.99703125 3.29296875 -0.96296875 3.29296875 -5.04296875 3.29296875 C-2.04296875 0.29296875 -2.04296875 0.29296875 0 0 Z " fill="#BA8D2D" transform="translate(207.04296875,86.70703125)"/>
<path d="M0 0 C0.99 0 1.98 0 3 0 C2 3 2 3 -0.9375 4.6875 C-4 6 -4 6 -6 6 C-6 4.68 -6 3.36 -6 2 C-4.02 2 -2.04 2 0 2 C0 1.34 0 0.68 0 0 Z " fill="#C09844" transform="translate(217,91)"/>
<path d="M0 0 C1.32 0.33 2.64 0.66 4 1 C3.40138258 3.35171131 2.73075648 5.6859378 2 8 C1.01 8.495 1.01 8.495 0 9 C0 6.03 0 3.06 0 0 Z " fill="#BA8413" transform="translate(198,336)"/>
<path d="M0 0 C1.32 0 2.64 0 4 0 C4 2.31 4 4.62 4 7 C3.01 7.33 2.02 7.66 1 8 C0.67 5.36 0.34 2.72 0 0 Z " fill="#B98513" transform="translate(189,282)"/>
<path d="M0 0 C0 0.66 0 1.32 0 2 C-1.32 2.33 -2.64 2.66 -4 3 C-4 3.66 -4 4.32 -4 5 C-7.465 6.485 -7.465 6.485 -11 8 C-11.33 7.34 -11.66 6.68 -12 6 C-11.01 6 -10.02 6 -9 6 C-8.67 5.01 -8.34 4.02 -8 3 C-2.77777778 0 -2.77777778 0 0 0 Z " fill="#BC9845" transform="translate(338,233)"/>
<path d="M0 0 C4.04256383 1.22217046 7.49288959 2.62754296 11 5 C11 5.33 11 5.66 11 6 C9.35 6 7.7 6 6 6 C6 5.34 6 4.68 6 4 C4.35 4 2.7 4 1 4 C0.67 2.68 0.34 1.36 0 0 Z " fill="#BA9543" transform="translate(262,89)"/>
<path d="M0 0 C-0.375 1.9375 -0.375 1.9375 -1 4 C-3.70879335 5.35439668 -6.00933268 5.06501451 -9 5 C-2.87096774 0 -2.87096774 0 0 0 Z " fill="#B49031" transform="translate(336,321)"/>
<path d="M0 0 C-1.28524261 0.86380259 -2.57842419 1.71580369 -3.875 2.5625 C-4.59429687 3.03816406 -5.31359375 3.51382812 -6.0546875 4.00390625 C-6.69664062 4.33261719 -7.33859375 4.66132813 -8 5 C-8.66 4.67 -9.32 4.34 -10 4 C-9.25 2.0625 -9.25 2.0625 -8 0 C-4.99756227 -1.30105635 -3.07011437 -0.84139118 0 0 Z " fill="#BE9D4C" transform="translate(337,294)"/>
<path d="M0 0 C1.32 0.33 2.64 0.66 4 1 C3 4 3 4 1 5 C0.67 5.99 0.34 6.98 0 8 C-0.66 8 -1.32 8 -2 8 C-2 6.68 -2 5.36 -2 4 C-1.34 4 -0.68 4 0 4 C0 2.68 0 1.36 0 0 Z " fill="#B98513" transform="translate(304,346)"/>
<path d="M0 0 C1.65 0 3.3 0 5 0 C5.33 0.99 5.66 1.98 6 3 C7.65 3.33 9.3 3.66 11 4 C11 4.99 11 5.98 11 7 C10.01 6.67 9.02 6.34 8 6 C8 5.34 8 4.68 8 4 C7.4225 3.896875 6.845 3.79375 6.25 3.6875 C3.67950842 2.90207202 2.06342716 1.69495803 0 0 Z " fill="#C0A058" transform="translate(167,293)"/>
<path d="M0 0 C1.0625 1.875 1.0625 1.875 2 4 C1.67 4.66 1.34 5.32 1 6 C-1.31 5.67 -3.62 5.34 -6 5 C-2.25 1.125 -2.25 1.125 0 0 Z " fill="#BF9338" transform="translate(282,234)"/>
<path d="M0 0 C3.45925163 1.2491742 6.14693203 2.67527795 9 5 C7.02 5 5.04 5 3 5 C3 5.66 3 6.32 3 7 C2.34 7 1.68 7 1 7 C0.67 4.69 0.34 2.38 0 0 Z " fill="#C09543" transform="translate(181,211)"/>
<path d="M0 0 C0.99 0.33 1.98 0.66 3 1 C3 1.66 3 2.32 3 3 C0.6875 4.6875 0.6875 4.6875 -2 6 C-2.99 5.67 -3.98 5.34 -5 5 C-5 4.34 -5 3.68 -5 3 C-3.68 3 -2.36 3 -1 3 C-0.67 2.01 -0.34 1.02 0 0 Z " fill="#BA8510" transform="translate(169,326)"/>
<path d="M0 0 C3.3 0.33 6.6 0.66 10 1 C8 3 8 3 6.0546875 3.1953125 C4.03645833 3.13020833 2.01822917 3.06510417 0 3 C0 2.01 0 1.02 0 0 Z " fill="#BB8410" transform="translate(208,310)"/>
<path d="M0 0 C0.99 0 1.98 0 3 0 C3 0.66 3 1.32 3 2 C3.66 2 4.32 2 5 2 C5.33 3.65 5.66 5.3 6 7 C4.125 6.875 4.125 6.875 2 6 C0.75 2.9375 0.75 2.9375 0 0 Z " fill="#B58E20" transform="translate(184,299)"/>
<path d="M0 0 C2.38564077 0.57584432 4.66682784 1.22227595 7 2 C7 2.66 7 3.32 7 4 C8.32 4.66 9.64 5.32 11 6 C7.97580475 5.41196203 4.98241547 4.77321882 2 4 C2 3.01 2 2.02 2 1 C1.34 0.67 0.68 0.34 0 0 Z " fill="#BD9E53" transform="translate(170,205)"/>
<path d="M0 0 C2.91517292 1.07401108 4.77810176 1.77810176 7 4 C6.67 4.99 6.34 5.98 6 7 C1.2 4.53846154 1.2 4.53846154 0.1875 1.8125 C0.125625 1.214375 0.06375 0.61625 0 0 Z " fill="#BD8310" transform="translate(249,87)"/>
<path d="M0 0 C2.05078125 0.03255208 4.1015625 0.06510417 6.15234375 0.09765625 C3.59242751 2.10901901 1.10644076 3.72611121 -1.84765625 5.09765625 C-2.41015625 3.16015625 -2.41015625 3.16015625 -2.84765625 1.09765625 C-1.84765625 0.09765625 -1.84765625 0.09765625 0 0 Z " fill="#C09C46" transform="translate(323.84765625,386.90234375)"/>
<path d="M0 0 C1.32 0 2.64 0 4 0 C4 0.99 4 1.98 4 3 C4.99 3.33 5.98 3.66 7 4 C7 4.66 7 5.32 7 6 C6.236875 5.690625 5.47375 5.38125 4.6875 5.0625 C2.81210323 4.32106407 0.91315348 3.63771783 -1 3 C-0.67 2.01 -0.34 1.02 0 0 Z " fill="#C49F46" transform="translate(146,370)"/>
<path d="M0 0 C1.65 0 3.3 0 5 0 C6.06775224 1.96466413 7.06553465 3.96855359 8 6 C7.67 6.66 7.34 7.32 7 8 C6.01 7.34 5.02 6.68 4 6 C4 5.01 4 4.02 4 3 C2.68 2.34 1.36 1.68 0 1 C0 0.67 0 0.34 0 0 Z " fill="#BA8612" transform="translate(290,349)"/>
<path d="M0 0 C3.93846154 4.30769231 3.93846154 4.30769231 4.25 7.8125 C4.1675 8.534375 4.085 9.25625 4 10 C0.92436109 8.46218054 0.29677426 6.08755777 -1 3 C-0.67 2.01 -0.34 1.02 0 0 Z " fill="#BA840F" transform="translate(308,326)"/>
<path d="M0 0 C0.66 0 1.32 0 2 0 C2.82638376 2.89234315 3 4.88742431 3 8 C2.34 8 1.68 8 1 8 C-0.42944945 5.64561267 -1.08661261 4.51967567 -0.625 1.75 C-0.41875 1.1725 -0.2125 0.595 0 0 Z " fill="#BB840F" transform="translate(307,312)"/>
<path d="M0 0 C0.66 0 1.32 0 2 0 C1.61402985 2.79828356 1.19863427 3.8205884 -0.9375 5.75 C-3 7 -3 7 -5 7 C-5 6.01 -5 5.02 -5 4 C-4.0409375 3.8453125 -4.0409375 3.8453125 -3.0625 3.6875 C-2.381875 3.460625 -1.70125 3.23375 -1 3 C-0.67 2.01 -0.34 1.02 0 0 Z " fill="#BA8512" transform="translate(213,293)"/>
<path d="M0 0 C0.66 0 1.32 0 2 0 C2 0.66 2 1.32 2 2 C2.66 2 3.32 2 4 2 C4.66 3.65 5.32 5.3 6 7 C1.25 5.125 1.25 5.125 -1 4 C-0.67 2.68 -0.34 1.36 0 0 Z " fill="#BA9433" transform="translate(210,256)"/>
<path d="M0 0 C-0.50603992 2.16874252 -0.99983813 3.99967627 -2 6 C-2.66 6 -3.32 6 -4 6 C-4 5.34 -4 4.68 -4 4 C-4.66 4 -5.32 4 -6 4 C-6 3.34 -6 2.68 -6 2 C-3 0 -3 0 0 0 Z " fill="#B99033" transform="translate(338,203)"/>
<path d="M0 0 C2.475 0.99 2.475 0.99 5 2 C4.01 2.495 4.01 2.495 3 3 C2.67 3.99 2.34 4.98 2 6 C1.01 5.67 0.02 5.34 -1 5 C-0.67 3.35 -0.34 1.7 0 0 Z " fill="#B98511" transform="translate(276,199)"/>
<path d="M0 0 C1.32 0 2.64 0 4 0 C3.6875 1.9375 3.6875 1.9375 3 4 C2.01 4.33 1.02 4.66 0 5 C-0.99 4.01 -1.98 3.02 -3 2 C-2.01 2 -1.02 2 0 2 C0 1.34 0 0.68 0 0 Z " fill="#B78601" transform="translate(201,96)"/>
<path d="M0 0 C1.32 0.66 2.64 1.32 4 2 C0.375 5 0.375 5 -3 5 C-3 5.66 -3 6.32 -3 7 C-3.66 6.67 -4.32 6.34 -5 6 C-5 5.34 -5 4.68 -5 4 C-4.01 4 -3.02 4 -2 4 C-2 3.34 -2 2.68 -2 2 C-1.34 1.34 -0.68 0.68 0 0 Z " fill="#C1A153" transform="translate(226,85)"/>
<path d="M0 0 C0.99 0.66 1.98 1.32 3 2 C3 3.32 3 4.64 3 6 C2.01 6 1.02 6 0 6 C-0.66 4.35 -1.32 2.7 -2 1 C-1.34 0.67 -0.68 0.34 0 0 Z " fill="#B98510" transform="translate(170,375)"/>
<path d="M0 0 C0.66 0.33 1.32 0.66 2 1 C1.67 1.99 1.34 2.98 1 4 C-1.64 4.33 -4.28 4.66 -7 5 C-2.25 1.125 -2.25 1.125 0 0 Z " fill="#BE9D51" transform="translate(324,268)"/>
<path d="M0 0 C1.98 0.495 1.98 0.495 4 1 C3.67 2.32 3.34 3.64 3 5 C1.68 5 0.36 5 -1 5 C-0.67 3.35 -0.34 1.7 0 0 Z " fill="#B68515" transform="translate(234,214)"/>
<path d="M0 0 C0 1.32 0 2.64 0 4 C-2.31 3.67 -4.62 3.34 -7 3 C-4.49955934 -0.00052879 -4.2621484 0 0 0 Z " fill="#C29F4F" transform="translate(325,211)"/>
<path d="M0 0 C-2.97 1.65 -5.94 3.3 -9 5 C-8.67 3.35 -8.34 1.7 -8 0 C-4.63458162 -1.08174162 -3.70152678 -0.92538169 0 0 Z " fill="#C2A24F" transform="translate(284,208)"/>
<path d="M0 0 C1.65 0 3.3 0 5 0 C4.67 1.32 4.34 2.64 4 4 C2.68 4.33 1.36 4.66 0 5 C0 3.35 0 1.7 0 0 Z " fill="#BA8419" transform="translate(300,202)"/>
<path d="M0 0 C0.66 0 1.32 0 2 0 C2 0.66 2 1.32 2 2 C2.66 2 3.32 2 4 2 C4 2.66 4 3.32 4 4 C4.66 4.33 5.32 4.66 6 5 C4.35 4.67 2.7 4.34 1 4 C0.34 4.99 -0.32 5.98 -1 7 C-1.04254356 5.00045254 -1.04080783 2.99958364 -1 1 C-0.67 0.67 -0.34 0.34 0 0 Z " fill="#BD9039" transform="translate(206,197)"/>
<path d="M0 0 C0 0.99 0 1.98 0 3 C0.66 3.33 1.32 3.66 2 4 C0.25 4.6875 0.25 4.6875 -2 5 C-4.25 3.5625 -4.25 3.5625 -6 2 C-2.25 0 -2.25 0 0 0 Z " fill="#BC9332" transform="translate(213,104)"/>
<path d="M0 0 C2.97 0 5.94 0 9 0 C9 0.66 9 1.32 9 2 C6.1875 2.6875 6.1875 2.6875 3 3 C2.01 2.01 1.02 1.02 0 0 Z " fill="#BD9740" transform="translate(243,428)"/>
<path d="M0 0 C0 0.66 0 1.32 0 2 C-0.99 2 -1.98 2 -3 2 C-3 3.65 -3 5.3 -3 7 C-4.32 6.67 -5.64 6.34 -7 6 C-3.61538462 0 -3.61538462 0 0 0 Z " fill="#B98E2B" transform="translate(327,326)"/>
<path d="M0 0 C0.99 0.33 1.98 0.66 3 1 C0.36 2.65 -2.28 4.3 -5 6 C-5.33 5.01 -5.66 4.02 -6 3 C-5 2 -5 2 -2.4375 1.9375 C-1.2309375 1.9684375 -1.2309375 1.9684375 0 2 C0 1.34 0 0.68 0 0 Z " fill="#C1A558" transform="translate(320,301)"/>
<path d="M0 0 C1.98 0.495 1.98 0.495 4 1 C4 1.66 4 2.32 4 3 C4.66 3.33 5.32 3.66 6 4 C6 4.66 6 5.32 6 6 C4.68 5.67 3.36 5.34 2 5 C2 4.34 2 3.68 2 3 C1.01 2.67 0.02 2.34 -1 2 C-0.67 1.34 -0.34 0.68 0 0 Z " fill="#BC8510" transform="translate(185,296)"/>
<path d="M0 0 C0.99 0 1.98 0 3 0 C2.67 1.65 2.34 3.3 2 5 C1.01 5.33 0.02 5.66 -1 6 C-1.042721 4.33388095 -1.04063832 2.66617115 -1 1 C-0.67 0.67 -0.34 0.34 0 0 Z " fill="#B98511" transform="translate(183,282)"/>
<path d="M0 0 C0 0.66 0 1.32 0 2 C-0.66 2 -1.32 2 -2 2 C-2.33 2.99 -2.66 3.98 -3 5 C-4.65 4.67 -6.3 4.34 -8 4 C-2.7826087 0 -2.7826087 0 0 0 Z " fill="#C29E4C" transform="translate(291,230)"/>
<path d="M0 0 C1.32 0 2.64 0 4 0 C3.67 1.32 3.34 2.64 3 4 C1.68 4.33 0.36 4.66 -1 5 C-0.67 3.35 -0.34 1.7 0 0 Z " fill="#B98415" transform="translate(329,217)"/>
<path d="M0 0 C2.05078125 0.03255208 4.1015625 0.06510417 6.15234375 0.09765625 C6.15234375 0.75765625 6.15234375 1.41765625 6.15234375 2.09765625 C5.00765625 2.31421875 5.00765625 2.31421875 3.83984375 2.53515625 C1.07061467 3.06091565 1.07061467 3.06091565 -1.84765625 4.09765625 C-2.17765625 3.10765625 -2.50765625 2.11765625 -2.84765625 1.09765625 C-1.84765625 0.09765625 -1.84765625 0.09765625 0 0 Z " fill="#B79439" transform="translate(332.84765625,175.90234375)"/>
<path d="M0 0 C0 0.66 0 1.32 0 2 C-1.98 2.66 -3.96 3.32 -6 4 C-6 3.34 -6 2.68 -6 2 C-6.99 1.67 -7.98 1.34 -9 1 C-5.92677456 0.08941469 -3.19902639 -0.08886184 0 0 Z " fill="#BC9423" transform="translate(340,120)"/>
<path d="M0 0 C6.75 2.75 6.75 2.75 9 5 C6.36 4.67 3.72 4.34 1 4 C0.67 2.68 0.34 1.36 0 0 Z " fill="#C49F50" transform="translate(341,114)"/>
<path d="M0 0 C0.99 0.66 1.98 1.32 3 2 C3 2.99 3 3.98 3 5 C1.35 5 -0.3 5 -2 5 C-1.67 4.01 -1.34 3.02 -1 2 C-1.66 1.67 -2.32 1.34 -3 1 C-2.01 0.67 -1.02 0.34 0 0 Z " fill="#B68616" transform="translate(164,113)"/>
<path d="M0 0 C-0.625 1.9375 -0.625 1.9375 -2 4 C-5.125 4.75 -5.125 4.75 -8 5 C-8 4.34 -8 3.68 -8 3 C-2.25 0 -2.25 0 0 0 Z " fill="#C3A355" transform="translate(169,109)"/>
<path d="M0 0 C2.97 0 5.94 0 9 0 C7.35 1.32 5.7 2.64 4 4 C2 3 2 3 0 0 Z " fill="#BC9434" transform="translate(230,81)"/>
<path d="M0 0 C1.98 0 3.96 0 6 0 C6.33 1.32 6.66 2.64 7 4 C6.01 4 5.02 4 4 4 C4 3.34 4 2.68 4 2 C2.68 1.67 1.36 1.34 0 1 C0 0.67 0 0.34 0 0 Z " fill="#B88410" transform="translate(149,372)"/>
<path d="M0 0 C-2.97 1.65 -5.94 3.3 -9 5 C-9 4.01 -9 3.02 -9 2 C-5.3823098 -0.81375904 -4.61553765 -1.15388441 0 0 Z " fill="#C4A862" transform="translate(306,358)"/>
<path d="M0 0 C3.55780196 0.60990891 6.6828589 1.5783681 10 3 C10 3.66 10 4.32 10 5 C6.33118845 4.29445932 3.29549466 2.72264494 0 1 C0 0.67 0 0.34 0 0 Z " fill="#C0A058" transform="translate(220,324)"/>
<path d="M0 0 C-0.25561323 2.3431213 -0.59270772 4.67843403 -1 7 C-1.99 7.495 -1.99 7.495 -3 8 C-3 5.69 -3 3.38 -3 1 C-1 0 -1 0 0 0 Z " fill="#BB840F" transform="translate(199,310)"/>
<path d="M0 0 C0 0.66 0 1.32 0 2 C-2.64 2 -5.28 2 -8 2 C-8 1.34 -8 0.68 -8 0 C-4.71303767 -0.79953138 -3.28976808 -1.09658936 0 0 Z " fill="#BB8414" transform="translate(218,304)"/>
<path d="M0 0 C4.75 1.875 4.75 1.875 7 3 C7 3.66 7 4.32 7 5 C4.61435923 4.42415568 2.33317216 3.77772405 0 3 C0 2.01 0 1.02 0 0 Z " fill="#B98512" transform="translate(208,233)"/>
<path d="M0 0 C1.65 0 3.3 0 5 0 C5.33 0.99 5.66 1.98 6 3 C5.01 3 4.02 3 3 3 C2.67 3.66 2.34 4.32 2 5 C1.34 5 0.68 5 0 5 C0 3.35 0 1.7 0 0 Z " fill="#B98415" transform="translate(312,219)"/>
<path d="M0 0 C0.66 0 1.32 0 2 0 C2.36923077 4.55384615 2.36923077 4.55384615 0.5 6.8125 C0.005 7.204375 -0.49 7.59625 -1 8 C-1.04241723 5.66705225 -1.04092937 3.33297433 -1 1 C-0.67 0.67 -0.34 0.34 0 0 Z " fill="#BB830E" transform="translate(340,189)"/>
<path d="M0 0 C0.33 0.66 0.66 1.32 1 2 C0.0625 4.125 0.0625 4.125 -1 6 C-2.65 5.67 -4.3 5.34 -6 5 C-5.01 4.67 -4.02 4.34 -3 4 C-2.67 3.01 -2.34 2.02 -2 1 C-1.34 0.67 -0.68 0.34 0 0 Z " fill="#B1870E" transform="translate(242,67)"/>
<path d="M0 0 C1.485 0.99 1.485 0.99 3 2 C2.34 4.31 1.68 6.62 1 9 C0.67 9 0.34 9 0 9 C0 6.03 0 3.06 0 0 Z " fill="#B6850F" transform="translate(299,327)"/>
<path d="M0 0 C0.66 0.33 1.32 0.66 2 1 C1.01 2.485 1.01 2.485 0 4 C-2.625 4.1875 -2.625 4.1875 -5 4 C-5.33 3.01 -5.66 2.02 -6 1 C-4.7934375 1.0309375 -4.7934375 1.0309375 -3.5625 1.0625 C-1.06645115 1.29633621 -1.06645115 1.29633621 0 0 Z " fill="#BA9840" transform="translate(333,125)"/>
<path d="M0 0 C3.37503669 1.1858237 5.64722731 2.27573689 8 5 C5.6875 5.3125 5.6875 5.3125 3 5 C1.1875 2.5 1.1875 2.5 0 0 Z " fill="#C4A156" transform="translate(317,120)"/>
<path d="M0 0 C1.98 0.66 3.96 1.32 6 2 C6 2.66 6 3.32 6 4 C4.02 4 2.04 4 0 4 C0 2.68 0 1.36 0 0 Z " fill="#C49B4E" transform="translate(256,85)"/>
<path d="M0 0 C0.33 0.66 0.66 1.32 1 2 C0.34 2 -0.32 2 -1 2 C-1.66 3.32 -2.32 4.64 -3 6 C-4.32 5.34 -5.64 4.68 -7 4 C-4.69 2.68 -2.38 1.36 0 0 Z " fill="#BF9E4B" transform="translate(214,82)"/>
<path d="M0 0 C4.455 0.99 4.455 0.99 9 2 C9 2.99 9 3.98 9 5 C4.89198233 3.81323934 3.10551666 3.10551666 0 0 Z " fill="#B59343" transform="translate(252,75)"/>
</svg>
